<svg xmlns="http://www.w3.org/2000/svg" viewBox="0 0 500 500"><g id="freepik--books--inject-87"><g id="freepik--big-books--inject-87"><path d="M84.78,336.81l2.53-1.46-1.83-.82S84,334.91,84,335a7.19,7.19,0,0,0,.1,1Z" style="fill:#BA68C8"></path><path d="M84.78,336.81l2.53-1.46-1.83-.82S84,334.91,84,335a7.19,7.19,0,0,0,.1,1Z" style="opacity:0.5"></path><path d="M181.17,385.37a8.18,8.18,0,0,1-7.4,0l-83.09-48,124.37-71.81,2.91-1.68,83.08,48c2,1.18,2,3.1,0,4.27Z" style="fill:#BA68C8"></path><path d="M150,294.75l-29,16.68L102.24,300.6,80.42,313.21v15.72c0,1.91,2.14,4.62,2.92,4.18a21.4,21.4,0,0,1,4.17,1.48,31.49,31.49,0,0,1,6,4.45l66.57-38.43Z" style="fill:#BA68C8"></path><path d="M150,294.75l-29,16.68L102.24,300.6,80.42,313.21v15.72c0,1.91,2.14,4.62,2.92,4.18a21.4,21.4,0,0,1,4.17,1.48,31.49,31.49,0,0,1,6,4.45l66.57-38.43Z" style="opacity:0.15"></path><path d="M80.42,328.93c0,1.79,1.87,4.28,2.75,4.22l.08,0,.09,0h0c.06,0,2.64-1.64,2.92-1.68l2.51-8.29s-.15-9.69,0-9.69a40.51,40.51,0,0,0-1.67-4.1l-6.68,3.86Z" style="opacity:0.4"></path><path d="M173.76,385.37l-5-2.91L93.53,339a4.88,4.88,0,0,0-1-2.7,11.09,11.09,0,0,0-3.29-2.89,7.52,7.52,0,0,0-3.55-1.11,3.82,3.82,0,0,0-2.34.77A13,13,0,0,1,82,326.89H79.1c0,3.93,1.3,7.87,2.89,8.78l1.44.84c.81.47,1.46.5,1.46.06v-.77c0-.85,1.29-.81,2.9.12s2.89,2.36,2.89,3.22v.76c0,.45,1.11,1.43,2.47,2.21l72.74,42,7.87,4.54h0a7.73,7.73,0,0,0,3.69.87v-3.29A7.51,7.51,0,0,1,173.76,385.37Z" style="fill:#BA68C8"></path><path d="M173.76,385.37l-5-2.91L93.53,339a4.88,4.88,0,0,0-1-2.7,11.09,11.09,0,0,0-3.29-2.89,7.52,7.52,0,0,0-3.55-1.11,3.82,3.82,0,0,0-2.34.77A13,13,0,0,1,82,326.89H79.1c0,3.93,1.3,7.87,2.89,8.78l1.44.84c.81.47,1.46.5,1.46.06v-.77c0-.85,1.29-.81,2.9.12s2.89,2.36,2.89,3.22v.76c0,.45,1.11,1.43,2.47,2.21l72.74,42,7.87,4.54h0a7.73,7.73,0,0,0,3.69.87v-3.29A7.51,7.51,0,0,1,173.76,385.37Z" style="opacity:0.30000000000000004"></path><path d="M302.56,314v3.34a2.54,2.54,0,0,1-1.46,2.11l-.06,0L189,384.12l-7.86,4.54h0a7.76,7.76,0,0,1-3.69.87v-3.29a7.47,7.47,0,0,0,3.7-.88l5-2.89h0L301,316.15A2.52,2.52,0,0,0,302.56,314Z" style="fill:#BA68C8"></path><path d="M302.56,314v3.34a2.54,2.54,0,0,1-1.46,2.11l-.06,0L189,384.12l-7.86,4.54h0a7.76,7.76,0,0,1-3.69.87v-3.29a7.47,7.47,0,0,0,3.7-.88l5-2.89h0L301,316.15A2.52,2.52,0,0,0,302.56,314Z" style="opacity:0.2"></path><path d="M177.47,364.08v19.2a4.93,4.93,0,0,1-2.47-.59l-9.11-5.25L96.47,337.35l0-20.05Z" style="fill:#ebebeb"></path><path d="M135.1,350.77,154.54,362s-2-2.1-9.72-6.5C137.34,351.23,135.1,350.77,135.1,350.77Z" style="opacity:0.15"></path><path d="M299,296.33v14.79a5.47,5.47,0,0,1-2.46,4.27L189,377.44l-9.1,5.25a4.92,4.92,0,0,1-2.46.59V366.11Z" style="fill:#f5f5f5"></path><path d="M92.4,315v17a1.91,1.91,0,0,0-.27-.16,7.34,7.34,0,0,0-3.54-1.12,3.77,3.77,0,0,0-2.33.77v-20Z" style="fill:#37474f"></path><path d="M96.46,337.36a4.82,4.82,0,0,0-1-2.7,9.38,9.38,0,0,0-1-1.17l-.35-.33-.45-.39-.38-.28a7.83,7.83,0,0,0-.82-.55V315l4,2.35Z" style="fill:#e0e0e0"></path><path d="M215.05,242.15,90.68,314v1.66c0,.93-1.29,1.27-2.89.35s-2.9-2.08-2.9-3.68l-.16-1.58,126.72-73.15.51-.3a1.66,1.66,0,0,1,.22.77v.77C212.18,239.73,213.46,241.21,215.05,242.15Z" style="fill:#BA68C8"></path><path d="M215.05,242.15,90.68,314v1.66c0,.93-1.29,1.27-2.89.35s-2.9-2.08-2.9-3.68l-.16-1.58,126.72-73.15.51-.3a1.66,1.66,0,0,1,.22.77v.77C212.18,239.73,213.46,241.21,215.05,242.15Z" style="opacity:0.1"></path><path d="M173.77,361.94,92.52,315c-1-.54-2-1-2.37-.77l.53-.29,124.37-71.82,1.46-.83c.8-.47,2.55-.21,3.92.58L301,288.44c2,1.19,2,3.11,0,4.28L181.17,361.94A8.18,8.18,0,0,1,173.77,361.94Z" style="fill:#BA68C8"></path><path d="M212,237.27l-.51.3L84.73,310.72a1,1,0,0,0-.27-.34l-.43-.24-.91-.53L82,309a1.14,1.14,0,0,0-1.43.13.45.45,0,0,0-.15.13,2.4,2.4,0,0,0-.38.53,3.57,3.57,0,0,0-.33.71c-.1.26-.18.54-.26.83s-.12.62-.18,1a3.81,3.81,0,0,0-.07.59c0,.15,0,.3,0,.47,0,.35-.05.72-.05,1.11v-3.56c0-2,1.67-4.52,3.71-5.7l119.88-69.22c2.05-1.18,5-1.38,6.6-.47l1.51.88,0,0c.1.07.36.21.64.37a0,0,0,0,1,0,0A1.2,1.2,0,0,1,212,237.27Z" style="fill:#BA68C8"></path><path d="M173.79,362h0l-5-2.91L111,325.69,92.52,315c-1.31-.77-2.38-1-2.45-.65a.09.09,0,0,0,0,.05v.84c0,.92-1.3.92-2.9,0s-2.25-2-2.27-2.91v-.91a1.33,1.33,0,0,0-.43-1.08l-.43-.24-.91-.53L82,309a1.14,1.14,0,0,0-1.43.13.45.45,0,0,0-.15.13,1.42,1.42,0,0,0-.25.34.8.8,0,0,0-.13.19,3.57,3.57,0,0,0-.33.71c-.1.26-.18.54-.26.83s-.12.62-.18,1a3.81,3.81,0,0,0-.07.59c0,.15,0,.3,0,.47,0,.35-.05.72-.05,1.11v12.48H82V314.41c0-.3,0-.6,0-.88l.07-.72a.11.11,0,0,1,0-.07c.25,2.27,2.42,4.29,4.3,5.36a7.12,7.12,0,0,0,3.47,1.08,3.82,3.82,0,0,0,2.55-.94l.26.14.5.3,72.74,42,7.87,4.54h0s0,0,.05,0a7.72,7.72,0,0,0,3.64.84v-3.29A7.61,7.61,0,0,1,173.79,362Z" style="fill:#BA68C8"></path><path d="M173.79,362h0l-5-2.91L111,325.69,92.52,315c-1.31-.77-2.38-1-2.45-.65a.09.09,0,0,0,0,.05v.84c0,.92-1.3.92-2.9,0s-2.25-2-2.27-2.91v-.91a1.33,1.33,0,0,0-.43-1.08l-.43-.24-.91-.53L82,309a1.14,1.14,0,0,0-1.43.13.45.45,0,0,0-.15.13,1.42,1.42,0,0,0-.25.34.8.8,0,0,0-.13.19,3.57,3.57,0,0,0-.33.71c-.1.26-.18.54-.26.83s-.12.62-.18,1a3.81,3.81,0,0,0-.07.59c0,.15,0,.3,0,.47,0,.35-.05.72-.05,1.11v12.48H82V314.41c0-.3,0-.6,0-.88l.07-.72a.11.11,0,0,1,0-.07c.25,2.27,2.42,4.29,4.3,5.36a7.12,7.12,0,0,0,3.47,1.08,3.82,3.82,0,0,0,2.55-.94l.26.14.5.3,72.74,42,7.87,4.54h0s0,0,.05,0a7.72,7.72,0,0,0,3.64.84v-3.29A7.61,7.61,0,0,1,173.79,362Z" style="opacity:0.30000000000000004"></path><path d="M220.43,241.9c-1.37-.79-3.12-1.05-3.92-.58l-1.45.83c-1.6-.94-2.88-2.42-2.88-3.34V238a1.66,1.66,0,0,0-.22-.77,1.2,1.2,0,0,0-.45-.51,0,0,0,0,0,0,0c-.28-.16-.54-.3-.64-.37l0,0-1.51-.88c-1.6-.91-4.55-.71-6.6.47L82.81,305.15l-.13.09,84.7,48.9a5.45,5.45,0,0,0,4.93,0L293,283.79Z" style="opacity:0.1"></path><path d="M302.56,290.54v3.35A2.56,2.56,0,0,1,301.1,296l-.06,0L189,360.69l-7.86,4.54v0s0,0,0,0a7.76,7.76,0,0,1-3.69.86v-3.29a7.47,7.47,0,0,0,3.7-.88l5-2.89h0L301,292.72A2.51,2.51,0,0,0,302.56,290.54Z" style="fill:#BA68C8"></path><path d="M302.56,290.54v3.35A2.56,2.56,0,0,1,301.1,296l-.06,0L189,360.69l-7.86,4.54v0s0,0,0,0a7.76,7.76,0,0,1-3.69.86v-3.29a7.47,7.47,0,0,0,3.7-.88l5-2.89h0L301,292.72A2.51,2.51,0,0,0,302.56,290.54Z" style="opacity:0.2"></path><path d="M160.6,347.08l3.21-1.85a5.21,5.21,0,0,0-2.69-.19C160.27,345.44,160.6,347.08,160.6,347.08Z"></path><path d="M158.4,345.06a3.87,3.87,0,0,1,5.71,0c3.12,2.86,3.28,5.7,4.57,5.65S170,327.85,170,327.85l-12.29,11.43Z"></path><path d="M287.19,262.08l.2-.11-2-1.14-84.81-49L77,291.84c-2,1.18-2.41,2.88-.81,3.8l2.89,1.66,79.28,45.79.56-.4Z" style="fill:#455a64"></path><path d="M169,317.05l-6.14-1.27v24.59c3.7,1.57,6.06,3.05,6.45,6.15Z" style="fill:#BA68C8"></path><path d="M160.1,340.69,81.57,295.35a5.47,5.47,0,0,1-2.47-4.28V266.84L158.4,313s.94,3.43,3.75,4.51.67,2.17.67,2.17v20.67C160.39,340.08,160.1,340.69,160.1,340.69Z" style="fill:#ebebeb"></path><path d="M167.35,316.21c-.82-.47-1.46-.5-1.46-.06v.77c0,.85-1.29.81-2.9-.12s-2.91-2.36-2.91-3.21v-.77c0-.45-1.09-1.43-2.45-2.21L285.41,237.4l2,1.14a1.88,1.88,0,0,1,.48,1.06v.77c0,.86,1.3,2.29,2.9,3.22s2.9,1,2.9.11v-.76c0-.45.64-.42,1.45.05Z" style="fill:#37474f"></path><path d="M287.19,238.66l.2-.12-2-1.14-84.81-49L77,259.8c-2,1.18-2.41,2.88-.81,3.8l2.89,1.67L158.4,313Z" style="fill:#455a64"></path><path d="M293.7,242.19,166,315.9l4.47,3.5,127.26-73.48a4.89,4.89,0,0,0-1.7-2.37Z" style="fill:#455a64"></path><path d="M297.25,278.93a1.19,1.19,0,0,0,.23-.16.45.45,0,0,0,.15-.13,1.42,1.42,0,0,0,.25-.34.8.8,0,0,0,.13-.19,3.57,3.57,0,0,0,.33-.71c.1-.26.18-.54.26-.83s.12-.62.18-1a3.81,3.81,0,0,0,.07-.59c0-.15,0-.3,0-.47,0-.35.05-.72.05-1.11V252.35a17.35,17.35,0,0,0-1.19-6.43L170.49,319.4l-.54,33L297.21,279Z" style="fill:#455a64"></path><path d="M170.49,319.4h0s100.23-46.91,109.35-51.21c6-2.84,9,3.12,7.55,9.29-1.25,5.39-6.56,10.94-6.56,10.94h0L297.21,279l0,0a1.19,1.19,0,0,0,.23-.16.45.45,0,0,0,.15-.13,1.42,1.42,0,0,0,.25-.34.8.8,0,0,0,.13-.19,3.57,3.57,0,0,0,.33-.71c.1-.26.18-.54.26-.83s.12-.62.18-1a3.81,3.81,0,0,0,.07-.59c0-.15,0-.3,0-.47,0-.35.05-.72.05-1.11V252.35a17.35,17.35,0,0,0-1.19-6.43Z" style="opacity:0.1"></path><path d="M171.67,325.83h-2.85a13,13,0,0,0-1.38-6.22,3.82,3.82,0,0,1-2.34.77,7.44,7.44,0,0,1-3.54-1.11,10.85,10.85,0,0,1-3.29-2.89,2.85,2.85,0,0,1-.17-.26,4.65,4.65,0,0,1-.86-2.44L82,270.26l-2.55-1.49-3.26-1.88a1.72,1.72,0,0,1-1-1.46v-3.34a1.76,1.76,0,0,0,1,1.51l0,0,8.64,5,72.74,42c1.35.78,2.46,1.76,2.46,2.2v.77a2.34,2.34,0,0,0,.67,1.36A8,8,0,0,0,163,316.8c1.61.93,2.91,1,2.91.12v-.77c0-.44.64-.42,1.45.05l1.44.84C170.37,318,171.67,321.9,171.67,325.83Z" style="fill:#37474f"></path><path d="M168.82,325.83v21.1c0,.3,0,.59,0,.88l-.07.71a.17.17,0,0,1,0,.07c-.26-2.26-2.42-4.28-4.3-5.35a7.16,7.16,0,0,0-3.48-1.09,3.84,3.84,0,0,0-2.55.94l-.26-.14-.49-.3-72.74-42-4.18-2.41c-.38-.22-.8-.45-1.19-.69l-3.52-2a1.67,1.67,0,0,1-.79-1.37v3.33a1.63,1.63,0,0,0,.73,1.29l0,0c.41.25.85.49,1.3.76l.81.47,1.39.81c.32.19.6.36.87.5l.61.36,1.07.62,57.79,33.35,18.44,10.65c1.31.77,2.38,1,2.45.64,0-.06,0-.12,0-.14v-.74c0-.93,1.29-.93,2.89,0s2.25,2,2.28,2.9v.91a1.35,1.35,0,0,0,.42,1.09l.43.24c.26.14.57.33.91.53l1.13.65a1.16,1.16,0,0,0,1.44-.13.53.53,0,0,0,.14-.12,1.87,1.87,0,0,0,.26-.35h0a1,1,0,0,0,.12-.17,3.53,3.53,0,0,0,.33-.71,7.29,7.29,0,0,0,.26-.83c.07-.31.13-.63.18-1a2.71,2.71,0,0,0,.07-.58c0-.16,0-.3,0-.47,0-.36,0-.73,0-1.11v-21.1Z" style="fill:#37474f"></path><path d="M297.75,245.91,176.8,315.75,85.37,263c-1.37-.78-1.37-2.06,0-2.85L205.06,191,285.4,237.4h0l2,1.15a1.87,1.87,0,0,1,.48,1v.77c0,.86,1.3,2.3,2.89,3.22a1.58,1.58,0,0,0,.26.13l2.66-1.54,1.27.73.17.08v0l.94.54A5,5,0,0,1,297.75,245.91Z" style="opacity:0.1"></path><path d="M92.18,263.49l3.64-1.94-3.32-.8A2.52,2.52,0,0,0,92.18,263.49Z" style="fill:#BA68C8"></path><path d="M92.18,263.49l3.64-1.94-3.32-.8A2.52,2.52,0,0,0,92.18,263.49Z" style="opacity:0.5"></path><path d="M188.58,312a8.18,8.18,0,0,1-7.4,0l-83.08-48,124.37-70.65,2.91-1.68,83.08,46.81c2,1.18,2,3.1,0,4.27Z" style="fill:#BA68C8"></path><path d="M157.39,222.59l-29,16.68-18.75-10.83L87.84,241V255.6c0,1.91,2.14,4.62,2.91,4.18a21.4,21.4,0,0,1,4.17,1.48,31.33,31.33,0,0,1,6,4.45l66.57-37.27Z" style="fill:#BA68C8"></path><path d="M157.39,222.59l-29,16.68-18.75-10.83L87.84,241V255.6c0,1.91,2.14,4.62,2.91,4.18a21.4,21.4,0,0,1,4.17,1.48,31.33,31.33,0,0,1,6,4.45l66.57-37.27Z" style="opacity:0.15"></path><path d="M99.81,242.79V258.6a2.56,2.56,0,0,0-.25-.16A7.52,7.52,0,0,0,96,257.33a3.68,3.68,0,0,0-2.34.55V239.25Z" style="fill:#37474f"></path><path d="M103.89,264a5,5,0,0,0-1-2.7,9.29,9.29,0,0,0-1-1.17l-.35-.33-.46-.39-.38-.28a9.79,9.79,0,0,0-.82-.55V242.87l4.06,2.35v-.08Z" style="fill:#e0e0e0"></path><path d="M87.84,255.6c0,1.91,2.14,4.62,2.91,4.18h0l2.91-1.9v-12l-2.92-5-1.59-.56-1.32.76Z" style="opacity:0.4"></path><path d="M184.88,291.91v18a4.92,4.92,0,0,1-2.46-.58l-9.12-5.26L103.88,264V245.14Z" style="fill:#ebebeb"></path><path d="M109.13,257.22l19.43,11.22s-2-2.1-9.71-6.49C111.36,257.68,109.13,257.22,109.13,257.22Z" style="opacity:0.15"></path><path d="M306.38,224.17v13.62a5.45,5.45,0,0,1-2.47,4.27l-107.46,62-9.1,5.26a4.93,4.93,0,0,1-2.47.58V294Z" style="fill:#f5f5f5"></path><path d="M222.47,170,98.1,241.8v1.67c0,.93-1.3,1.27-2.89.34s-2.91-2.08-2.91-3.67l-.15-1.58L218.87,165.4l.51-.3a1.71,1.71,0,0,1,.21.77v.77C219.59,167.57,220.88,169.05,222.47,170Z" style="fill:#BA68C8"></path><path d="M222.47,170,98.1,241.8v1.67c0,.93-1.3,1.27-2.89.34s-2.91-2.08-2.91-3.67l-.15-1.58L218.87,165.4l.51-.3a1.71,1.71,0,0,1,.21.77v.77C219.59,167.57,220.88,169.05,222.47,170Z" style="opacity:0.1"></path><path d="M181.18,289.77l-81.24-46.9c-1-.54-2-1-2.37-.77l.53-.3L222.47,170l1.45-.84c.81-.46,2.56-.2,3.92.58l80.62,46.55c2,1.18,2,3.1,0,4.27L188.58,289.77A8.18,8.18,0,0,1,181.18,289.77Z" style="fill:#BA68C8"></path><path d="M225.94,190,270.86,216c1.9,1.1,1.9,2.89,0,4l-6.05,3.49a7.65,7.65,0,0,1-6.91,0L213,197.51c-1.91-1.1-1.91-2.89,0-4l6-3.49A7.63,7.63,0,0,1,225.94,190Z" style="fill:#fff"></path><path d="M178.11,281.44a.79.79,0,0,1-.4-.1l-61-35.13a.8.8,0,0,1,0-1.39,3.73,3.73,0,0,0,0-6.45.78.78,0,0,1-.4-.69.79.79,0,0,1,.4-.69l101.88-58.82a.81.81,0,0,1,.8,0,12.78,12.78,0,0,0,12.76,0,.81.81,0,0,1,.8,0l60.93,35.18a.82.82,0,0,1,.4.69.8.8,0,0,1-.4.69,3.73,3.73,0,0,0,0,6.45.8.8,0,0,1,.4.69.82.82,0,0,1-.4.69L192.05,281.33a.81.81,0,0,1-.8,0,12.77,12.77,0,0,0-12.74,0A.82.82,0,0,1,178.11,281.44Zm-59.6-36,59.61,34.31a14.38,14.38,0,0,1,13.52,0L292,221.78a5.33,5.33,0,0,1,0-7.65l-59.5-34.35a14.44,14.44,0,0,1-13.55,0l-100.44,58a5.33,5.33,0,0,1,0,7.65Z" style="fill:#fff"></path><path d="M219.38,165.1l-.51.3L92.15,238.56a1,1,0,0,0-.28-.35l-.42-.24-.91-.53c-.35-.19-.73-.42-1.13-.65a1.16,1.16,0,0,0-1.44.13.43.43,0,0,0-.14.13,2.33,2.33,0,0,0-.38.52,3.38,3.38,0,0,0-.33.72,6.55,6.55,0,0,0-.26.82c-.07.31-.13.63-.18,1a2.79,2.79,0,0,0-.07.58c0,.16,0,.3,0,.47,0,.36,0,.73,0,1.11v-3.56c0-2,1.67-4.51,3.7-5.69l119.89-69.23c2-1.18,5-1.38,6.59-.47l1.51.89.06,0c.1.07.36.21.64.37h0A1.21,1.21,0,0,1,219.38,165.1Z" style="fill:#BA68C8"></path><path d="M181.18,312l-5-2.91L101,265.7a4.87,4.87,0,0,0-1-2.69,10.85,10.85,0,0,0-3.29-2.89A7.48,7.48,0,0,0,93.09,259a3.8,3.8,0,0,0-2.34.77,13,13,0,0,1-1.38-6.22H86.52c0,3.93,1.3,7.87,2.89,8.78l1.44.84c.81.47,1.45.5,1.45.06v-.77c0-.85,1.3-.81,2.91.12S98.1,265,98.1,265.8v.77c0,.45,1.11,1.43,2.46,2.21l72.74,42,7.88,4.55h0a7.76,7.76,0,0,0,3.69.87v-3.29A7.47,7.47,0,0,1,181.18,312Z" style="fill:#BA68C8"></path><path d="M181.18,312l-5-2.91L101,265.7a4.87,4.87,0,0,0-1-2.69,10.85,10.85,0,0,0-3.29-2.89A7.48,7.48,0,0,0,93.09,259a3.8,3.8,0,0,0-2.34.77,13,13,0,0,1-1.38-6.22H86.52c0,3.93,1.3,7.87,2.89,8.78l1.44.84c.81.47,1.45.5,1.45.06v-.77c0-.85,1.3-.81,2.91.12S98.1,265,98.1,265.8v.77c0,.45,1.11,1.43,2.46,2.21l72.74,42,7.88,4.55h0a7.76,7.76,0,0,0,3.69.87v-3.29A7.47,7.47,0,0,1,181.18,312Z" style="opacity:0.30000000000000004"></path><path d="M181.21,289.79l0,0-5-2.9-57.79-33.34L99.94,242.87c-1.31-.77-2.38-1-2.45-.64a0,0,0,0,0,0,0v.84c0,.93-1.29.93-2.89,0s-2.25-2-2.28-2.9v-.91a1.32,1.32,0,0,0-.43-1.09l-.42-.24c-.26-.14-.57-.33-.91-.53s-.73-.42-1.13-.65a1.16,1.16,0,0,0-1.44.13.43.43,0,0,0-.14.13,1.46,1.46,0,0,0-.26.34.81.81,0,0,0-.12.18,3.38,3.38,0,0,0-.33.72,6.55,6.55,0,0,0-.26.82c-.07.31-.13.63-.18,1a2.79,2.79,0,0,0-.07.58c0,.16,0,.3,0,.47,0,.36,0,.73,0,1.11v11.32h2.85V242.24c0-.29,0-.59,0-.88l.07-.71a.17.17,0,0,1,0-.07c.26,2.26,2.42,4.29,4.3,5.35A7.16,7.16,0,0,0,97.26,247a3.84,3.84,0,0,0,2.55-.94l.25.14.5.3,72.74,42,7.88,4.54s0,0,0,0l.06,0a7.77,7.77,0,0,0,3.63.84v-3.29A7.65,7.65,0,0,1,181.21,289.79Z" style="fill:#BA68C8"></path><path d="M181.21,289.79l0,0-5-2.9-57.79-33.34L99.94,242.87c-1.31-.77-2.38-1-2.45-.64a0,0,0,0,0,0,0v.84c0,.93-1.29.93-2.89,0s-2.25-2-2.28-2.9v-.91a1.32,1.32,0,0,0-.43-1.09l-.42-.24c-.26-.14-.57-.33-.91-.53s-.73-.42-1.13-.65a1.16,1.16,0,0,0-1.44.13.43.43,0,0,0-.14.13,1.46,1.46,0,0,0-.26.34.81.81,0,0,0-.12.18,3.38,3.38,0,0,0-.33.72,6.55,6.55,0,0,0-.26.82c-.07.31-.13.63-.18,1a2.79,2.79,0,0,0-.07.58c0,.16,0,.3,0,.47,0,.36,0,.73,0,1.11v11.32h2.85V242.24c0-.29,0-.59,0-.88l.07-.71a.17.17,0,0,1,0-.07c.26,2.26,2.42,4.29,4.3,5.35A7.16,7.16,0,0,0,97.26,247a3.84,3.84,0,0,0,2.55-.94l.25.14.5.3,72.74,42,7.88,4.54s0,0,0,0l.06,0a7.77,7.77,0,0,0,3.63.84v-3.29A7.65,7.65,0,0,1,181.21,289.79Z" style="opacity:0.30000000000000004"></path><path d="M310,218.38v3.34a2.54,2.54,0,0,1-1.47,2.11l-.05,0-112,64.66-7.86,4.55h0a7.73,7.73,0,0,1-3.69.87v-3.29a7.51,7.51,0,0,0,3.71-.88l5-2.89h0l114.86-66.34A2.53,2.53,0,0,0,310,218.38Z" style="fill:#BA68C8"></path><path d="M310,218.38v3.34a2.54,2.54,0,0,1-1.47,2.11l-.05,0-112,64.66-7.86,4.55h0a7.73,7.73,0,0,1-3.69.87v-3.29a7.51,7.51,0,0,0,3.71-.88l5-2.89h0l114.86-66.34A2.53,2.53,0,0,0,310,218.38Z" style="opacity:0.2"></path><path d="M310,240.64V244a2.54,2.54,0,0,1-1.47,2.11l-.05,0-112,64.66-7.86,4.55h0a7.73,7.73,0,0,1-3.69.87v-3.29a7.51,7.51,0,0,0,3.71-.88l5-2.89h0l114.86-66.33A2.54,2.54,0,0,0,310,240.64Z" style="fill:#BA68C8"></path><path d="M310,240.64V244a2.54,2.54,0,0,1-1.47,2.11l-.05,0-112,64.66-7.86,4.55h0a7.73,7.73,0,0,1-3.69.87v-3.29a7.51,7.51,0,0,0,3.71-.88l5-2.89h0l114.86-66.33A2.54,2.54,0,0,0,310,240.64Z" style="opacity:0.2"></path><polygon points="112.37 259.09 112.37 303.97 118.85 296.49 125.33 311.45 125.33 266.57 112.37 259.09" style="fill:#BA68C8"></polygon><polygon points="112.37 259.09 112.37 303.97 118.85 296.49 125.33 311.45 125.33 266.57 112.37 259.09" style="opacity:0.5"></polygon><path d="M138.28,352.59v12.18a11.29,11.29,0,0,1-5.65,9.78l-17,9.83,16.19-1.87-3.24,9.35,17-9.83a11.31,11.31,0,0,0,5.65-9.78V360.07Z" style="fill:#BA68C8"></path><path d="M138.28,352.59v12.18a11.29,11.29,0,0,1-5.65,9.78l-17,9.83,16.19-1.87-3.24,9.35,17-9.83a11.31,11.31,0,0,0,5.65-9.78V360.07Z" style="opacity:0.5"></path></g></g></svg>