<svg xmlns="http://www.w3.org/2000/svg" viewBox="0 0 500 500"><g id="freepik--background-complete--inject-1"><rect y="382.4" width="500" height="0.25" style="fill:#ebebeb"></rect><rect x="416.78" y="398.49" width="33.12" height="0.25" style="fill:#ebebeb"></rect><rect x="322.53" y="401.21" width="8.69" height="0.25" style="fill:#ebebeb"></rect><rect x="396.59" y="389.21" width="19.19" height="0.25" style="fill:#ebebeb"></rect><rect x="52.46" y="390.89" width="43.19" height="0.25" style="fill:#ebebeb"></rect><rect x="104.56" y="390.89" width="6.33" height="0.25" style="fill:#ebebeb"></rect><rect x="131.47" y="395.11" width="93.68" height="0.25" style="fill:#ebebeb"></rect><path d="M237,337.8H43.91a5.71,5.71,0,0,1-5.7-5.71V60.66A5.71,5.71,0,0,1,43.91,55H237a5.71,5.71,0,0,1,5.71,5.71V332.09A5.71,5.71,0,0,1,237,337.8ZM43.91,55.2a5.46,5.46,0,0,0-5.45,5.46V332.09a5.46,5.46,0,0,0,5.45,5.46H237a5.47,5.47,0,0,0,5.46-5.46V60.66A5.47,5.47,0,0,0,237,55.2Z" style="fill:#ebebeb"></path><path d="M453.31,337.8H260.21a5.72,5.72,0,0,1-5.71-5.71V60.66A5.72,5.72,0,0,1,260.21,55h193.1A5.71,5.71,0,0,1,459,60.66V332.09A5.71,5.71,0,0,1,453.31,337.8ZM260.21,55.2a5.47,5.47,0,0,0-5.46,5.46V332.09a5.47,5.47,0,0,0,5.46,5.46h193.1a5.47,5.47,0,0,0,5.46-5.46V60.66a5.47,5.47,0,0,0-5.46-5.46Z" style="fill:#ebebeb"></path><rect x="49.78" y="371.41" width="58.09" height="35.6" rx="4.22" style="fill:#ebebeb"></rect><path d="M67.7,385.56H54.91a.82.82,0,0,1-.82-.82h0a.83.83,0,0,1,.82-.83H67.7a.83.83,0,0,1,.83.83h0A.83.83,0,0,1,67.7,385.56Z" style="fill:#fafafa;isolation:isolate"></path><path d="M103.91,376.83H91.12a.83.83,0,0,1-.82-.83h0a.83.83,0,0,1,.82-.83h12.79a.83.83,0,0,1,.83.83h0A.83.83,0,0,1,103.91,376.83Z" style="fill:#fafafa;isolation:isolate"></path><path d="M67.7,403H54.91a.83.83,0,0,1-.82-.83h0a.83.83,0,0,1,.82-.83H67.7a.83.83,0,0,1,.83.83h0A.83.83,0,0,1,67.7,403Z" style="fill:#fafafa;isolation:isolate"></path><path d="M58.28,389.65H54.91a.83.83,0,0,1-.82-.83h0a.82.82,0,0,1,.82-.82h3.37a.82.82,0,0,1,.82.82h0A.83.83,0,0,1,58.28,389.65Z" style="fill:#fafafa;isolation:isolate"></path><rect x="90.5" y="394.47" width="14.03" height="10.04" rx="1.71" style="fill:#e0e0e0;isolation:isolate"></rect><rect x="81.39" y="86.58" width="76.2" height="46.7" rx="4.22" style="fill:#ebebeb"></rect><path d="M104.9,105.15H88.13A1.09,1.09,0,0,1,87,104.07h0A1.09,1.09,0,0,1,88.13,103H104.9a1.09,1.09,0,0,1,1.09,1.09h0A1.09,1.09,0,0,1,104.9,105.15Z" style="fill:#fafafa;isolation:isolate"></path><path d="M152.41,93.69H135.63a1.08,1.08,0,0,1-1.08-1.09h0a1.08,1.08,0,0,1,1.08-1.08h16.78a1.08,1.08,0,0,1,1.08,1.08h0A1.08,1.08,0,0,1,152.41,93.69Z" style="fill:#fafafa;isolation:isolate"></path><rect x="87.04" y="125.84" width="18.95" height="2.17" rx="0.79" style="fill:#fafafa;isolation:isolate"></rect><path d="M92.54,110.51H88.13A1.09,1.09,0,0,1,87,109.42h0a1.09,1.09,0,0,1,1.09-1.08h4.41a1.08,1.08,0,0,1,1.08,1.08h0A1.08,1.08,0,0,1,92.54,110.51Z" style="fill:#fafafa;isolation:isolate"></path><rect x="134.82" y="116.84" width="18.4" height="13.17" rx="1.71" style="fill:#e0e0e0;isolation:isolate"></rect><path d="M304.88,115.19v5.41h-4v-5.36c-4.73-.29-9.31-1.83-11.82-4l2.17-4.87a18.53,18.53,0,0,0,9.65,3.67v-9.65c-5.36-1.31-11.1-3-11.1-9.75,0-4.92,3.57-9.22,11.1-9.94V75.23h4v5.36a20.71,20.71,0,0,1,9.79,2.94l-2,4.88a19.89,19.89,0,0,0-7.81-2.61v9.75c5.35,1.3,11.19,3,11.19,9.7C316.07,110.17,312.45,114.42,304.88,115.19Zm-4-20.65V86c-3.43.53-4.87,2.26-4.87,4.39C296.05,92.65,298.12,93.72,300.92,94.54Zm9,11.14c0-2.36-2.13-3.47-5-4.29v8.54C308.4,109.4,309.9,107.76,309.9,105.68Z" style="fill:#e0e0e0"></path><path d="M430.12,348.29v4.12h-3v-4.09c-3.6-.22-7.1-1.4-9-3.05l1.65-3.72a14.14,14.14,0,0,0,7.36,2.8V337c-4.08-1-8.46-2.32-8.46-7.43,0-3.75,2.72-7,8.46-7.58v-4.15h3v4.08a15.91,15.91,0,0,1,7.47,2.24l-1.51,3.72a15.23,15.23,0,0,0-6-2v7.43c4.08,1,8.53,2.28,8.53,7.4C438.65,344.46,435.89,347.7,430.12,348.29Zm-3-15.75V326c-2.61.41-3.71,1.73-3.71,3.35C423.39,331.11,425,331.92,427.1,332.54Zm6.84,8.5c0-1.8-1.61-2.65-3.82-3.28v6.52C432.8,343.87,433.94,342.62,433.94,341Z" style="fill:#e0e0e0"></path><path d="M53.64,307.63a7.36,7.36,0,0,1-2-5.46,8.24,8.24,0,0,1,.92-4,6.24,6.24,0,0,1,2.53-2.56,8.07,8.07,0,0,1,7.29,0,6.32,6.32,0,0,1,2.54,2.56,8.35,8.35,0,0,1,.91,4,7.39,7.39,0,0,1-2,5.46,7.58,7.58,0,0,1-10.22,0Zm20.78-12.51h6.45L62.64,321.81H56.19ZM60,304.71a7.07,7.07,0,0,0,0-5.07,1.32,1.32,0,0,0-2.41,0,7.07,7.07,0,0,0,0,5.07,1.32,1.32,0,0,0,2.41,0Zm13.25,15.5a7.37,7.37,0,0,1-2-5.45,8.28,8.28,0,0,1,.91-4,6.18,6.18,0,0,1,2.54-2.55,8,8,0,0,1,7.28,0,6.18,6.18,0,0,1,2.54,2.55,8.28,8.28,0,0,1,.92,4,7.38,7.38,0,0,1-2,5.45,7.56,7.56,0,0,1-10.22,0Zm6.31-2.92a6.93,6.93,0,0,0,0-5.07,1.31,1.31,0,0,0-2.4,0,6.93,6.93,0,0,0,0,5.07,1.31,1.31,0,0,0,2.4,0Z" style="fill:#e0e0e0"></path><path d="M380.48,158.1a10.49,10.49,0,0,1-2.81-7.74,11.69,11.69,0,0,1,1.3-5.69,8.78,8.78,0,0,1,3.6-3.62,11.4,11.4,0,0,1,10.34,0,8.9,8.9,0,0,1,3.6,3.62,11.81,11.81,0,0,1,1.29,5.69A10.45,10.45,0,0,1,395,158.1a10.77,10.77,0,0,1-14.51,0ZM410,140.34h9.15l-25.87,37.89h-9.15ZM389.44,154a9.87,9.87,0,0,0,0-7.2,1.86,1.86,0,0,0-3.41,0,10,10,0,0,0,0,7.2,1.86,1.86,0,0,0,3.41,0Zm18.81,22a10.49,10.49,0,0,1-2.81-7.74,11.65,11.65,0,0,1,1.3-5.68,8.75,8.75,0,0,1,3.6-3.63,11.38,11.38,0,0,1,10.33,0,8.75,8.75,0,0,1,3.6,3.63,11.65,11.65,0,0,1,1.3,5.68,10.45,10.45,0,0,1-2.81,7.74,10.74,10.74,0,0,1-14.51,0Zm9-4.14a9.87,9.87,0,0,0,0-7.2,1.86,1.86,0,0,0-3.41,0,9.87,9.87,0,0,0,0,7.2,1.86,1.86,0,0,0,3.41,0Z" style="fill:#e0e0e0"></path></g><g id="freepik--Shadow--inject-1"><ellipse id="freepik--path--inject-1" cx="250" cy="416.24" rx="193.89" ry="11.32" style="fill:#f5f5f5"></ellipse></g><g id="freepik--Device--inject-1"><path d="M410.5,173.94H93.26a13.21,13.21,0,0,0-13.21,13.21v201a13.22,13.22,0,0,0,13.21,13.22h42.11v-6.44a3.43,3.43,0,0,1,3.43-3.43H365a3.42,3.42,0,0,1,3.43,3.43v6.44H410.5a13.21,13.21,0,0,0,13.21-13.22v-201A13.2,13.2,0,0,0,410.5,173.94Z" style="fill:#263238"></path><path d="M410.5,173.94H93.26a13.21,13.21,0,0,0-13.21,13.21v201a13.22,13.22,0,0,0,13.21,13.22h42.11v-6.44a3.43,3.43,0,0,1,3.43-3.43H365a3.42,3.42,0,0,1,3.43,3.43v6.44H410.5a13.21,13.21,0,0,0,13.21-13.22v-201A13.2,13.2,0,0,0,410.5,173.94Z" style="fill:#fff;opacity:0.2"></path><path d="M254.66,182.59a2.78,2.78,0,1,1-2.78-2.78A2.77,2.77,0,0,1,254.66,182.59Z" style="fill:#407BFF"></path><rect x="54.09" y="396.43" width="395.59" height="9.9" style="fill:#263238"></rect><rect x="54.09" y="396.43" width="395.59" height="9.9" style="fill:#fff;opacity:0.5"></rect><path d="M54.09,406.33l6.12,4.9a22.74,22.74,0,0,0,14.23,5H429.32a22.74,22.74,0,0,0,14.23-5l6.13-4.9Z" style="fill:#263238"></path><path d="M54.09,406.33l6.12,4.9a22.74,22.74,0,0,0,14.23,5H429.32a22.74,22.74,0,0,0,14.23-5l6.13-4.9Z" style="fill:#fff;opacity:0.30000000000000004"></path><path d="M213.87,396.75a4.62,4.62,0,0,0,4.62,4.63h66.78a4.62,4.62,0,0,0,4.62-4.63c0-.11,0-.21,0-.32h-76C213.89,396.54,213.87,396.64,213.87,396.75Z" style="fill:#fff;opacity:0.4"></path><rect x="94.59" y="194.17" width="313.67" height="178.52" style="fill:#407BFF"></rect><g style="opacity:0.9"><rect x="94.59" y="194.17" width="313.67" height="178.52" style="fill:#fff"></rect></g><rect x="136.31" y="222.72" width="226.66" height="7.5" style="fill:#407BFF"></rect><g style="opacity:0.8"><rect x="136.31" y="222.72" width="226.66" height="7.5" style="fill:#fff"></rect></g><rect x="362.96" y="222.72" width="8.12" height="7.5" style="fill:#407BFF"></rect><g style="opacity:0.5"><rect x="362.96" y="222.72" width="8.12" height="7.5" style="fill:#fff"></rect></g><rect x="94.59" y="194.17" width="313.67" height="8.48" style="fill:#407BFF"></rect><path d="M385.71,198.41a2.44,2.44,0,1,1-2.43-2.43A2.43,2.43,0,0,1,385.71,198.41Z" style="fill:#fff"></path><path d="M395.05,198.41a2.44,2.44,0,1,1-2.44-2.43A2.43,2.43,0,0,1,395.05,198.41Z" style="fill:#fff"></path><path d="M404.38,198.41A2.43,2.43,0,1,1,402,196,2.43,2.43,0,0,1,404.38,198.41Z" style="fill:#fff"></path><path d="M101.61,229.6a4.08,4.08,0,0,1-1.22-.48l.68-1.55a4.37,4.37,0,0,0,1,.42,3.75,3.75,0,0,0,1.07.16,1.63,1.63,0,0,0,.64-.09.27.27,0,0,0,.19-.25.32.32,0,0,0-.25-.3,5.2,5.2,0,0,0-.82-.22,8.66,8.66,0,0,1-1.22-.33,2.06,2.06,0,0,1-.84-.57,1.58,1.58,0,0,1-.36-1.09,1.86,1.86,0,0,1,.33-1.08,2.15,2.15,0,0,1,1-.77,4,4,0,0,1,1.61-.28,6,6,0,0,1,1.27.14,3.94,3.94,0,0,1,1.11.41l-.64,1.54a4,4,0,0,0-1.76-.47c-.55,0-.82.14-.82.4s.08.22.24.28a4.14,4.14,0,0,0,.8.21,8,8,0,0,1,1.22.31,2.16,2.16,0,0,1,.86.57,1.57,1.57,0,0,1,.37,1.08,1.8,1.8,0,0,1-.34,1.08,2.24,2.24,0,0,1-1,.77,4.11,4.11,0,0,1-1.61.28A7,7,0,0,1,101.61,229.6Z" style="fill:#263238"></path><path d="M108,225h-1.85v-1.66H112V225h-1.84v4.66H108Z" style="fill:#263238"></path><path d="M113.9,229.35a3.29,3.29,0,0,1-1.27-1.18,3.37,3.37,0,0,1,0-3.4,3.29,3.29,0,0,1,1.27-1.18,4.2,4.2,0,0,1,3.66,0,3.23,3.23,0,0,1,0,5.76,4.2,4.2,0,0,1-3.66,0Zm2.55-1.5a1.4,1.4,0,0,0,.51-.54,1.74,1.74,0,0,0,.19-.84,1.67,1.67,0,0,0-.19-.83,1.43,1.43,0,0,0-.51-.55,1.38,1.38,0,0,0-1.43,0,1.29,1.29,0,0,0-.51.55,1.67,1.67,0,0,0-.19.83,1.74,1.74,0,0,0,.19.84,1.27,1.27,0,0,0,.51.54,1.38,1.38,0,0,0,1.43,0Z" style="fill:#263238"></path><path d="M122.78,228h-.58v1.59h-2.13v-6.32h3a3.75,3.75,0,0,1,1.52.29,2.21,2.21,0,0,1,1.36,2.1,2.12,2.12,0,0,1-1.19,2l1.32,1.95h-2.27Zm.84-2.89A.94.94,0,0,0,123,225h-.77v1.48H123a.94.94,0,0,0,.65-.2.67.67,0,0,0,.22-.54A.68.68,0,0,0,123.62,225.15Z" style="fill:#263238"></path><path d="M132,228v1.61h-5.25v-6.32h5.13v1.61h-3v.74h2.67v1.53h-2.67V228Z" style="fill:#263238"></path><path d="M379,230.21a1.08,1.08,0,1,1-1.08-1.08A1.08,1.08,0,0,1,379,230.21Z" style="fill:#263238"></path><path d="M385.71,230.21a1.09,1.09,0,1,1-1.08-1.08A1.09,1.09,0,0,1,385.71,230.21Z" style="fill:#263238"></path><path d="M377,222.55l-.73-2.34h-2.74V221h2.19l2.06,6.68h7.19l.64-4.42Zm7.41,4.55-6.13-.07-1.16-3.89,7.79.57Z" style="fill:#263238"></path><rect x="94.59" y="202.65" width="313.67" height="16.12" style="fill:#407BFF"></rect><g style="opacity:0.7000000000000001"><rect x="94.59" y="202.65" width="313.67" height="16.12" style="fill:#fff"></rect></g><rect x="115" y="206.29" width="188.94" height="8.83" rx="3.38" style="fill:#263238"></rect><rect x="115" y="206.29" width="188.94" height="8.83" rx="3.38" style="fill:#fff;opacity:0.7000000000000001"></rect><polygon points="298.12 207.32 299.22 209.55 301.68 209.91 299.9 211.64 300.32 214.09 298.12 212.94 295.92 214.09 296.34 211.64 294.56 209.91 297.02 209.55 298.12 207.32" style="fill:#407BFF"></polygon><polygon points="106.09 206.08 101.23 210.94 102.65 210.94 102.65 215.33 109.53 215.33 109.53 210.94 110.95 210.94 106.09 206.08" style="fill:#407BFF"></polygon><path d="M283.87,265h2.69a3.78,3.78,0,0,1,1.62.33,2.5,2.5,0,0,1,1.08,1,2.64,2.64,0,0,1,.39,1.45,2.7,2.7,0,0,1-.39,1.46,2.48,2.48,0,0,1-1.08.94,3.64,3.64,0,0,1-1.62.34h-2.69Zm2.62,4a1.34,1.34,0,0,0,.94-2.26,1.31,1.31,0,0,0-.94-.33h-.78V269Z" style="fill:#407BFF"></path><path d="M294.79,268.69h-3a.71.71,0,0,0,.31.37,1,1,0,0,0,.55.13,1.26,1.26,0,0,0,.47-.07,1.85,1.85,0,0,0,.42-.24l.92.93a2.37,2.37,0,0,1-1.86.68,3.06,3.06,0,0,1-1.36-.28,2.2,2.2,0,0,1-.91-.79,2.21,2.21,0,0,1,0-2.29,2.16,2.16,0,0,1,.86-.78,2.67,2.67,0,0,1,1.24-.29,2.76,2.76,0,0,1,1.19.26,2.08,2.08,0,0,1,.85.76,2.19,2.19,0,0,1,.31,1.2S294.81,268.44,294.79,268.69ZM292,267.42a.78.78,0,0,0-.23.42h1.38a.73.73,0,0,0-.24-.42.68.68,0,0,0-.45-.15A.71.71,0,0,0,292,267.42Z" style="fill:#407BFF"></path><path d="M295.37,264.62h1.76v5.8h-1.76Z" style="fill:#407BFF"></path><path d="M298,265.55a.81.81,0,0,1-.29-.65.79.79,0,0,1,.29-.64,1.12,1.12,0,0,1,.77-.26,1.16,1.16,0,0,1,.77.24.8.8,0,0,1,.29.63.88.88,0,0,1-.29.67,1.12,1.12,0,0,1-.77.26A1.17,1.17,0,0,1,298,265.55Zm-.11.59h1.76v4.28h-1.76Z" style="fill:#407BFF"></path><path d="M305.22,266.14l-1.72,4.28h-1.83L300,266.14h1.81l.86,2.29.92-2.29Z" style="fill:#407BFF"></path><path d="M309.9,268.69h-3a.71.71,0,0,0,.31.37,1,1,0,0,0,.55.13,1.26,1.26,0,0,0,.47-.07,1.85,1.85,0,0,0,.42-.24l.92.93a2.36,2.36,0,0,1-1.86.68,3.06,3.06,0,0,1-1.36-.28,2.2,2.2,0,0,1-.91-.79,2.21,2.21,0,0,1,0-2.29,2.16,2.16,0,0,1,.86-.78,2.67,2.67,0,0,1,1.24-.29,2.73,2.73,0,0,1,1.19.26,2.08,2.08,0,0,1,.85.76,2.19,2.19,0,0,1,.31,1.2S309.92,268.44,309.9,268.69Zm-2.76-1.27a.73.73,0,0,0-.24.42h1.38a.73.73,0,0,0-.24-.42.75.75,0,0,0-.9,0Z" style="fill:#407BFF"></path><path d="M313.54,266.06v1.57l-.39,0a.81.81,0,0,0-.91.92v1.9h-1.76v-4.28h1.68v.46A1.72,1.72,0,0,1,313.54,266.06Z" style="fill:#407BFF"></path><path d="M318.92,266.14l-1.76,4.36a2.37,2.37,0,0,1-.84,1.17,2.09,2.09,0,0,1-1.22.34,2.35,2.35,0,0,1-.73-.11,1.68,1.68,0,0,1-.57-.27l.59-1.21a1.06,1.06,0,0,0,.3.16,1,1,0,0,0,.32.06.54.54,0,0,0,.44-.17l-1.8-4.33h1.81l.89,2.29.89-2.29Z" style="fill:#407BFF"></path><path d="M325.32,269.46h-2.08l-.37,1H321l2.39-5.47h1.81l2.39,5.47h-1.91Zm-.51-1.32-.53-1.38-.53,1.38Z" style="fill:#407BFF"></path><path d="M332.52,264.62v5.8h-1.68v-.36a1.49,1.49,0,0,1-1.17.43,2.17,2.17,0,0,1-1-.26,2,2,0,0,1-.75-.78,2.47,2.47,0,0,1-.28-1.17,2.41,2.41,0,0,1,.28-1.17,2,2,0,0,1,.75-.78,2.07,2.07,0,0,1,1-.27,1.5,1.5,0,0,1,1.08.37v-1.81Zm-1.93,4.28a.92.92,0,0,0,.2-.62.89.89,0,0,0-.2-.62.68.68,0,0,0-1,0,.89.89,0,0,0-.2.62.92.92,0,0,0,.2.62.68.68,0,0,0,1,0Z" style="fill:#407BFF"></path><path d="M338,264.62v5.8h-1.68v-.36a1.49,1.49,0,0,1-1.17.43,2.17,2.17,0,0,1-1-.26,2,2,0,0,1-.75-.78,2.47,2.47,0,0,1-.28-1.17,2.41,2.41,0,0,1,.28-1.17,2,2,0,0,1,.75-.78,2.07,2.07,0,0,1,1-.27,1.5,1.5,0,0,1,1.08.37v-1.81Zm-1.93,4.28a.92.92,0,0,0,.19-.62.89.89,0,0,0-.19-.62.63.63,0,0,0-.5-.22.62.62,0,0,0-.5.22.89.89,0,0,0-.2.62.92.92,0,0,0,.2.62.62.62,0,0,0,.5.22A.63.63,0,0,0,336.1,268.9Z" style="fill:#407BFF"></path><path d="M341.87,266.06v1.57l-.39,0a.81.81,0,0,0-.91.92v1.9h-1.76v-4.28h1.68v.46A1.72,1.72,0,0,1,341.87,266.06Z" style="fill:#407BFF"></path><path d="M346.86,268.69h-3a.67.67,0,0,0,.31.37,1,1,0,0,0,.55.13,1.33,1.33,0,0,0,.47-.07,1.85,1.85,0,0,0,.42-.24l.92.93a2.4,2.4,0,0,1-1.87.68,3.09,3.09,0,0,1-1.36-.28,2.17,2.17,0,0,1-.9-.79,2,2,0,0,1-.32-1.14,2.07,2.07,0,0,1,1.18-1.93,2.67,2.67,0,0,1,1.24-.29,2.72,2.72,0,0,1,1.18.26,2,2,0,0,1,.85.76,2.19,2.19,0,0,1,.32,1.2S346.87,268.44,346.86,268.69Zm-2.77-1.27a.67.67,0,0,0-.23.42h1.37a.72.72,0,0,0-.23-.42.69.69,0,0,0-.46-.15A.68.68,0,0,0,344.09,267.42Z" style="fill:#407BFF"></path><path d="M348,270.38a2.94,2.94,0,0,1-.86-.31l.48-1.16a2.57,2.57,0,0,0,.71.28,3.09,3.09,0,0,0,.78.1,1.34,1.34,0,0,0,.43-.05.16.16,0,0,0,.12-.15c0-.07-.05-.12-.15-.14a4,4,0,0,0-.5-.08,7.25,7.25,0,0,1-.89-.16,1.4,1.4,0,0,1-.64-.38,1.08,1.08,0,0,1-.28-.8,1.19,1.19,0,0,1,.25-.75,1.71,1.71,0,0,1,.75-.52,3.22,3.22,0,0,1,1.19-.2,5,5,0,0,1,.95.09,2.71,2.71,0,0,1,.79.27l-.48,1.16a2.51,2.51,0,0,0-1.24-.31c-.38,0-.58.07-.58.2s.06.12.16.15l.49.08a5.53,5.53,0,0,1,.89.16,1.56,1.56,0,0,1,.64.38,1.14,1.14,0,0,1,.28.81,1.24,1.24,0,0,1-.25.73,1.79,1.79,0,0,1-.75.52,3.38,3.38,0,0,1-1.21.19A4.83,4.83,0,0,1,348,270.38Z" style="fill:#407BFF"></path><path d="M352.44,270.38a3.05,3.05,0,0,1-.86-.31l.49-1.16a2.62,2.62,0,0,0,.7.28,3.11,3.11,0,0,0,.79.1,1.43,1.43,0,0,0,.43-.05.16.16,0,0,0,.12-.15c0-.07-.05-.12-.16-.14a3.78,3.78,0,0,0-.49-.08,6.92,6.92,0,0,1-.89-.16,1.44,1.44,0,0,1-.65-.38,1.12,1.12,0,0,1-.27-.8,1.19,1.19,0,0,1,.25-.75,1.62,1.62,0,0,1,.74-.52,3.26,3.26,0,0,1,1.19-.2,4.94,4.94,0,0,1,.95.09,2.78,2.78,0,0,1,.8.27l-.49,1.16a2.47,2.47,0,0,0-1.23-.31c-.39,0-.58.07-.58.2s.05.12.15.15l.5.08a5.39,5.39,0,0,1,.88.16,1.44,1.44,0,0,1,.64.38,1.09,1.09,0,0,1,.28.81,1.17,1.17,0,0,1-.25.73,1.73,1.73,0,0,1-.75.52,3.34,3.34,0,0,1-1.21.19A5,5,0,0,1,352.44,270.38Z" style="fill:#407BFF"></path><rect x="283.49" y="284.86" width="57.49" height="3.43" style="fill:#407BFF"></rect><rect x="283.49" y="290.37" width="45.72" height="3.43" style="fill:#407BFF"></rect><rect x="283.49" y="295.88" width="63.15" height="3.43" style="fill:#407BFF"></rect><rect x="283.49" y="301.39" width="53.02" height="3.43" style="fill:#407BFF"></rect><rect x="284.12" y="320.45" width="79.24" height="13.11" rx="5.44" style="fill:#407BFF"></rect><path d="M296.2,324.67a1.64,1.64,0,0,1,.7,2.34,1.67,1.67,0,0,1-.7.58,2.67,2.67,0,0,1-1.06.2h-.64v1.08H293v-4.4h2.12A2.67,2.67,0,0,1,296.2,324.67Zm-.7,1.84a.49.49,0,0,0,.15-.38.48.48,0,0,0-.15-.38.68.68,0,0,0-.46-.14h-.54v1H295A.68.68,0,0,0,295.5,326.51Z" style="fill:#fff"></path><path d="M300.47,325.77A1.55,1.55,0,0,1,301,327v1.85h-1.32v-.45a1,1,0,0,1-1,.51,1.62,1.62,0,0,1-.7-.14,1,1,0,0,1-.58-.93.87.87,0,0,1,.39-.77,2.09,2.09,0,0,1,1.18-.26h.57c0-.27-.26-.41-.64-.41a1.55,1.55,0,0,0-.47.08,1.2,1.2,0,0,0-.41.19l-.46-.93a2.64,2.64,0,0,1,.72-.29,3.37,3.37,0,0,1,.83-.1A2.08,2.08,0,0,1,300.47,325.77ZM299.35,328a.45.45,0,0,0,.18-.24v-.24h-.35c-.29,0-.43.1-.43.29a.25.25,0,0,0,.09.2.36.36,0,0,0,.24.08A.4.4,0,0,0,299.35,328Z" style="fill:#fff"></path><path d="M305.33,325.43l-1.41,3.51a2,2,0,0,1-.68.94,1.69,1.69,0,0,1-1,.27,2.32,2.32,0,0,1-.58-.08,1.31,1.31,0,0,1-.46-.23l.47-1a.92.92,0,0,0,.24.13.85.85,0,0,0,.26.05.45.45,0,0,0,.35-.14l-1.44-3.48h1.45l.71,1.84.73-1.84Z" style="fill:#fff"></path><path d="M311.1,325.75a1.6,1.6,0,0,1,.37,1.16v2h-1.42v-1.72c0-.39-.13-.59-.38-.59a.41.41,0,0,0-.33.15.77.77,0,0,0-.12.48v1.68H307.8v-1.72c0-.39-.13-.59-.38-.59a.41.41,0,0,0-.33.15.77.77,0,0,0-.12.48v1.68h-1.42v-3.44h1.35v.32a1.35,1.35,0,0,1,1-.38,1.41,1.41,0,0,1,.62.13,1,1,0,0,1,.45.39,1.45,1.45,0,0,1,.5-.39,1.57,1.57,0,0,1,.65-.13A1.35,1.35,0,0,1,311.1,325.75Z" style="fill:#fff"></path><path d="M315.79,327.48H313.4a.57.57,0,0,0,.25.3.87.87,0,0,0,.44.1,1,1,0,0,0,.38-.06,1.18,1.18,0,0,0,.34-.19l.74.75a1.93,1.93,0,0,1-1.5.55,2.54,2.54,0,0,1-1.1-.23,1.66,1.66,0,0,1-.72-.64,1.59,1.59,0,0,1-.26-.91,1.71,1.71,0,0,1,.95-1.56,2.16,2.16,0,0,1,1-.22,2.31,2.31,0,0,1,.95.2,1.74,1.74,0,0,1,.68.61,1.78,1.78,0,0,1,.26,1S315.8,327.28,315.79,327.48Zm-2.23-1a.56.56,0,0,0-.18.34h1.1a.55.55,0,0,0-.19-.33.54.54,0,0,0-.36-.12A.62.62,0,0,0,313.56,326.45Z" style="fill:#fff"></path><path d="M319.66,325.75a1.56,1.56,0,0,1,.39,1.16v2h-1.42v-1.72c0-.39-.14-.59-.42-.59a.51.51,0,0,0-.39.17.75.75,0,0,0-.15.52v1.62h-1.42v-3.44h1.35v.34a1.45,1.45,0,0,1,.47-.3,1.56,1.56,0,0,1,.57-.1A1.41,1.41,0,0,1,319.66,325.75Z" style="fill:#fff"></path><path d="M323.2,328.75a1.83,1.83,0,0,1-.88.18,1.62,1.62,0,0,1-1.11-.35,1.32,1.32,0,0,1-.39-1v-.88h-.47v-1h.47v-1h1.42v1H323v1h-.71v.86a.37.37,0,0,0,.08.25.29.29,0,0,0,.22.09.58.58,0,0,0,.32-.1Z" style="fill:#fff"></path><path d="M329.41,328.87v-2l-1,1.61h-.65l-1-1.54v1.94h-1.35v-4.4h1.21l1.44,2.34,1.39-2.34h1.22v4.4Z" style="fill:#fff"></path><path d="M335.07,327.48h-2.38a.57.57,0,0,0,.25.3.84.84,0,0,0,.44.1,1,1,0,0,0,.38-.06,1.15,1.15,0,0,0,.33-.19l.75.75a1.94,1.94,0,0,1-1.51.55,2.5,2.5,0,0,1-1.09-.23,1.69,1.69,0,0,1-.73-.64,1.74,1.74,0,0,1,.7-2.47,2.12,2.12,0,0,1,1-.22,2.24,2.24,0,0,1,.95.2,1.7,1.7,0,0,1,.69.61,1.77,1.77,0,0,1,.25,1S335.09,327.28,335.07,327.48Zm-2.22-1a.58.58,0,0,0-.19.34h1.11a.55.55,0,0,0-.19-.33.57.57,0,0,0-.37-.12A.61.61,0,0,0,332.85,326.45Z" style="fill:#fff"></path><path d="M338.07,328.75a1.76,1.76,0,0,1-.87.18,1.62,1.62,0,0,1-1.11-.35,1.32,1.32,0,0,1-.39-1v-.88h-.47v-1h.47v-1h1.42v1h.7v1h-.7v.86a.33.33,0,0,0,.08.25.26.26,0,0,0,.21.09.58.58,0,0,0,.32-.1Z" style="fill:#fff"></path><path d="M341.84,325.75a1.56,1.56,0,0,1,.39,1.16v2h-1.42v-1.72c0-.39-.14-.59-.42-.59a.51.51,0,0,0-.39.17.75.75,0,0,0-.15.52v1.62h-1.42V324.2h1.42v1.51a1.56,1.56,0,0,1,2,0Z" style="fill:#fff"></path><path d="M343.69,328.7a1.74,1.74,0,0,1-.71-.63,1.7,1.7,0,0,1-.26-.92,1.72,1.72,0,0,1,1-1.56,2.54,2.54,0,0,1,2.07,0,1.69,1.69,0,0,1,.71.64,1.67,1.67,0,0,1,.25.92,1.69,1.69,0,0,1-.25.92,1.74,1.74,0,0,1-.71.63,2.44,2.44,0,0,1-2.07,0Zm1.43-1.05a.72.72,0,0,0,.16-.5.7.7,0,0,0-.16-.5.53.53,0,0,0-.8,0,.7.7,0,0,0-.16.5.72.72,0,0,0,.16.5.56.56,0,0,0,.8,0Z" style="fill:#fff"></path><path d="M351,324.2v4.67h-1.35v-.29a1.18,1.18,0,0,1-.95.35,1.59,1.59,0,0,1-.83-.22,1.56,1.56,0,0,1-.6-.62,1.92,1.92,0,0,1-.23-.94,1.9,1.9,0,0,1,.23-.94,1.65,1.65,0,0,1,.6-.63,1.68,1.68,0,0,1,.83-.21,1.23,1.23,0,0,1,.88.29V324.2Zm-1.55,3.45a.76.76,0,0,0,.15-.5.75.75,0,0,0-.15-.5.52.52,0,0,0-.41-.18.52.52,0,0,0-.4.18.75.75,0,0,0-.16.5.77.77,0,0,0,.16.5.54.54,0,0,0,.4.17A.55.55,0,0,0,349.42,327.65Z" style="fill:#fff"></path><rect x="178.66" y="245.04" width="98.47" height="5.02" style="fill:#407BFF"></rect><rect x="178.66" y="252.02" width="21.61" height="5.02" style="fill:#407BFF"></rect><rect x="178.66" y="259.01" width="29.69" height="5.02" style="fill:#407BFF"></rect><rect x="178.97" y="266" width="24.21" height="5.02" style="fill:#407BFF"></rect><rect x="147.46" y="245.04" width="25.99" height="25.99" rx="3.89" style="fill:#407BFF"></rect><rect x="154.83" y="252.41" width="11.24" height="11.24" rx="1.01" style="fill:#fff;opacity:0.2"></rect><rect x="159.16" y="253.48" width="5.53" height="5.53" rx="0.87" style="fill:#fff;opacity:0.2"></rect><rect x="124.59" y="252.02" width="9.5" height="9.5" style="fill:#407BFF"></rect><polygon points="125.58 257.47 128.26 260.5 133.62 253.03 127.89 258.59 125.58 257.47" style="fill:#fff"></polygon><rect x="178.66" y="284.37" width="98.47" height="5.02" style="fill:#407BFF"></rect><rect x="178.66" y="291.36" width="21.61" height="5.02" style="fill:#407BFF"></rect><rect x="178.66" y="298.35" width="29.69" height="5.02" style="fill:#407BFF"></rect><rect x="178.97" y="305.33" width="24.21" height="5.02" style="fill:#407BFF"></rect><rect x="147.46" y="284.37" width="25.99" height="25.99" rx="3.89" style="fill:#407BFF"></rect><rect x="154.83" y="291.74" width="11.24" height="11.24" rx="1.01" style="fill:#fff;opacity:0.2"></rect><rect x="159.16" y="292.82" width="5.53" height="5.53" rx="0.87" style="fill:#fff;opacity:0.2"></rect><rect x="124.59" y="291.36" width="9.5" height="9.5" style="fill:#407BFF"></rect><polygon points="125.58 296.81 128.26 299.84 133.62 292.37 127.89 297.92 125.58 296.81" style="fill:#fff"></polygon><rect x="178.66" y="323.71" width="98.47" height="5.02" style="fill:#407BFF"></rect><rect x="178.66" y="330.69" width="21.61" height="5.02" style="fill:#407BFF"></rect><rect x="178.66" y="337.68" width="29.69" height="5.02" style="fill:#407BFF"></rect><rect x="178.97" y="344.67" width="24.21" height="5.02" style="fill:#407BFF"></rect><rect x="147.46" y="323.71" width="25.99" height="25.99" rx="3.89" style="fill:#407BFF"></rect><rect x="154.83" y="331.08" width="11.24" height="11.24" rx="1.01" style="fill:#fff;opacity:0.2"></rect><rect x="159.16" y="332.15" width="5.53" height="5.53" rx="0.87" style="fill:#fff;opacity:0.2"></rect><rect x="124.59" y="330.69" width="9.5" height="9.5" style="fill:#407BFF"></rect><polygon points="125.58 336.14 128.26 339.17 133.62 331.7 127.89 337.26 125.58 336.14" style="fill:#fff"></polygon></g></svg>