<svg xmlns="http://www.w3.org/2000/svg" viewBox="0 0 500 500"><g id="freepik--Character--inject-13"><g id="freepik--character--inject-13"><path d="M414.9,246.59c3.07,7.61-6.23,16-20,19.41s-34.67.36-48.39-7.55-2.4-23.72,10.75-29.22S405.62,230.31,414.9,246.59Z" style="fill:#C10C4C"></path><path d="M414.9,246.59c3.07,7.61-6.23,16-20,19.41s-34.67.36-48.39-7.55-2.4-23.72,10.75-29.22S405.62,230.31,414.9,246.59Z" style="opacity:0.15"></path><path d="M394.59,254.22c3.92-35.71-1.3-41.83-13.36-62.87l-44.15,4,20.95,33s3.34,45.48,5.18,63.58c1.05,10.43,4.89,22.34,9.66,41.95,2.8,11.52,8,29.24,10,38.94.58,2.94,8.06,6.26,13.34-2.35.41-11.48.1-36.31,0-45-.21-20.53-6.91-34-6.91-34S392.39,274.25,394.59,254.22Z" style="fill:#ffa8a7"></path><path d="M342.3,334.76c-.1-18.05-.82-22.26-1.56-27.51a68.93,68.93,0,0,0-5.45-19.39l28.91-57.09-27.12-34.38c-.44,2.09-32.15,82.37-28.11,97.28,1.88,6.93,12.54,40.6,21.09,66.66a49.53,49.53,0,0,1,2.06,4.72c.54,1.55,11.17-5.17,11.17-5.17,1.31-3.3-.36-5.7-.41-6.9C342.67,347.28,342.35,343.8,342.3,334.76Z" style="fill:#ffa8a7"></path><path d="M335.4,201c-4,10.72-14.18,37.83-20.78,60.37,11,5.12,20.78,7,31.19,5.68l13.17-26c.48,6.27,1.09,14.19,1.73,22.16,1-.37,2-.77,3-1.19,12.13-5,22.75-10.19,31.31-12.26,2.66-28.19-1.17-36.51-10.1-52Z" style="fill:#f28f8f"></path><path d="M333.85,200.25c-6.74,11.31-38,23.76-38,23.76s-1.08,15.08,13.34,22S333.85,200.25,333.85,200.25Z" style="fill:#C10C4C"></path><path d="M333.85,200.25c-6.74,11.31-38,23.76-38,23.76s-1.08,15.08,13.34,22S333.85,200.25,333.85,200.25Z" style="opacity:0.15"></path><path d="M337.08,195.39c-9.42,15.08-22.3,21.25-38.34,45.85C304.3,252,325,262.72,343.28,262.06c20.44-.74,42.2-17.86,54.16-20.16,12.19-2.35,17.46,4.69,17.46,4.69s-9-21.16-32.12-53.27Z" style="fill:#C10C4C"></path><path d="M401.05,379.51c1.33,2.74,2.32,10.84,2.32,10.84s-.65,3-4.72,5.8l-4.41-10.6Z" style="fill:#263238"></path><polygon points="398.65 396.15 388.1 395.06 383.83 386.83 396.11 390.03 398.65 396.15"></polygon><path d="M382.87,372.89l-.5-2.06c-1.19.94-1.8,12.35-4.17,20.6C376,399,369.65,404.28,368,407.72c-2.27,4.61,4.91,8.35,14.21,4.14,4.61-2.09,11.27-6.78,12.55-10.47s.64-9.85,1.75-12.6,4.36-6.36,4.59-9.28a15.27,15.27,0,0,0-1.66-7.54c-1.31-2.32-1.8-4.87-3.08-4.82l-.06,2.13c-.36,1.47-2.31,3.4-7.18,4.74C386.76,374.65,384.41,374.79,382.87,372.89Z" style="fill:#37474f"></path><path d="M349.47,364c1.73,2.51,3.93,10.38,3.93,10.38s-.2,3.07-3.81,6.45L343.64,371Z" style="fill:#263238"></path><polygon points="349.59 380.87 338.98 381.37 333.52 373.88 346.15 375.19 349.59 380.87"></polygon><path d="M330.06,360.33l-.64-1.93c-1.55.38-1,3.38-.93,4.3.14,2.65.35,5.29.44,7.94a49.34,49.34,0,0,1-.42,8.77c-.41,2.78-.48,5.67-1.64,8.27s-3.71,4.49-5.67,6.46a4,4,0,0,0-1.17,1.71c-.3,1.24.67,2.43,1.73,3.14a11,11,0,0,0,6.25,1.7,22.55,22.55,0,0,0,6.44-1.2,23.48,23.48,0,0,0,9.86-5.89c2.62-2.73,2.49-7.13,2.33-10.69-.13-2.89-1-6.14-.32-9s3.36-7,3.15-9.87a13.88,13.88,0,0,0-2.8-6.73c-1.64-2.1-3.07-4.9-3.79-4.33l.14,1.81c-.14,1.52.53,3.85-4.09,5.91C336.74,361.67,331.86,362,330.06,360.33Z" style="fill:#37474f"></path><path d="M360.19,153.68a72.2,72.2,0,0,0-2.75,7,9.34,9.34,0,0,1-4,5.44,25.52,25.52,0,0,1-5,3,18.78,18.78,0,0,1-6.17.46,30,30,0,0,1-11.77-2.77,25.94,25.94,0,0,1-9.43-7.29c-2.82-3.57-4.81-8.3-4.38-12.91.41-4.31,2.23-8.38,5-10.79a15.62,15.62,0,0,0-7.28,11.56c-1.68-7,.45-12.06,4.06-16.73s7.62-6.1,12.25-9.77c3.07-2.44,5-4.41,6-8s.77-7.38.77-10.94a25.37,25.37,0,0,1,10.85-20.71A25.05,25.05,0,0,1,359.78,77,90.53,90.53,0,0,1,377.5,77c4.78.58,9.84,2.06,13.6,5.06a13.16,13.16,0,0,1,5,10.37c-.23,5.86-2.87,10.77-7.14,14.8a17.23,17.23,0,0,1,6.09,7c1.41,3.2,2.12,5.87,1.32,9.41a13.53,13.53,0,0,1-4,7.15c.31-3.33,0-4.87-1.29-6.82a16.39,16.39,0,0,1-.05,5.62,20.29,20.29,0,0,1-2.05,5.78,17.31,17.31,0,0,1-6.29,6.85c-2.94,1.68-6.45,1.93-9.81,2.35s-6.9,1.14-9.35,3.48A15.63,15.63,0,0,0,360.19,153.68Z" style="fill:#263238"></path><path d="M341.94,89.43a3.43,3.43,0,1,1-5.7-3.82Z" style="fill:#263238"></path><path d="M342.46,89.59a3.43,3.43,0,1,1-.46-6.85Z" style="fill:#263238"></path><path d="M350.15,131.53c-3.47-.61-6.85-1-11.35,1.45s-10.15,9.84-15.06,16.88-10,13-10,13-17.23-14.07-19.94-19c-1.42-2.57-.2-3.84-1.55-8.92-1.53-5.77,1.69-9.09-1.76-8.7-3.83.44-3.37,7-3.37,7a39.72,39.72,0,0,1-3.51-8.14c-2-6.31-7.72-5.61-10.13.4-2.46,6.17,0,12.59,6.89,22.65,7.17,10.45,22,25.79,27.17,30.5,7.77,7,11.63,3.18,17.92-3.32,9.07-9.38,22.65-24.61,22.65-24.61L343.52,142Z" style="fill:#ffa8a7"></path><path d="M381.13,180.64c.94-3.73,1.49-7.7,3.66-16-6-9.25-8.62-20.86-4.14-30.52l-10.19-.63c-4.77-.3-12.49-1.08-16.39-1.3l-3.92-.65C344.74,137.32,337,141.7,332.52,149c-4.24,6.88-3.53,14.69,2,21.51.19,3.55,2.55,15.84,2.57,18.57h0v1s5,6.08,19.39,6.24c12.66.15,23.78-6.84,23.78-6.84A24.72,24.72,0,0,1,381.13,180.64Z" style="fill:#C10C4C"></path><path d="M349.67,171s3.55,5,11.94,4.37,11.94-8.22,11.94-8.22-1.1,9.31-10.51,10.39C351.75,178.86,349.67,171,349.67,171Z" style="opacity:0.1"></path><path d="M379,87.14c2.77,2.33,6.33,7.51,6.72,23,.32,13.17-3.62,16.61-5.63,17.65s-5.61.65-9.5.16v5.05s0,2.63-3.83,5.45c-2.93,2.16-9.18,4.27-12.63,1.83-3.07-2.17,0-8.21,0-8.21v-13s-3.33,2.4-7.35-.92c-3.31-2.74-4.61-7.57-2.26-10.3a5.43,5.43,0,0,1,8.89,1.41A30.68,30.68,0,0,0,368,104.49,23.88,23.88,0,0,0,379,87.14Z" style="fill:#ffa8a7"></path><path d="M370.56,128c-4.09-.36-13-2.46-14.43-5.84a9,9,0,0,0,3.14,4.25c2.6,2.11,11.29,4.25,11.29,4.25Z" style="fill:#f28f8f"></path><path d="M370.43,107.74a2.72,2.72,0,0,1-5.28.43,3.91,3.91,0,0,0,2.71.79A4,4,0,0,0,370.43,107.74Z" style="fill:#263238"></path><path d="M384.13,106.56a2.72,2.72,0,0,1-5.3.09,4,4,0,0,0,5.3-.09Z" style="fill:#263238"></path><path d="M367.79,101.46l-3.62,1.9a2.14,2.14,0,0,1,.89-2.83A2,2,0,0,1,367.79,101.46Z" style="fill:#263238"></path><path d="M371,118.9l3.9,1.18a2,2,0,0,1-2.51,1.43A2.13,2.13,0,0,1,371,118.9Z" style="fill:#f28f8f"></path><path d="M383.92,102.13l-3.42-2.29a2,2,0,0,1,2.8-.62A2.16,2.16,0,0,1,383.92,102.13Z" style="fill:#263238"></path><polygon points="373.92 105.25 375.13 115.25 380.25 113.12 373.92 105.25" style="fill:#f28f8f"></polygon><path d="M439.16,116c-.76-12.18-2.77-18.75-8.52-22.09-2.6-1.52-5.07-1.68-6.72-.79-1.9,1-2.73,3.39-1.5,6.7a40.18,40.18,0,0,1,2.25,8.58S421,103,417.72,105c-3,1.81,1.62,2.44,4,7.93,2.06,4.84,4.21,5,4.27,8,0,.85-.31,3.53-.79,6.91-.76,5.29-1.87,12.31-2.59,16.71-.4,2.52-.68,4.18-.68,4.18s-2.77-.85-6.15-2c-4.3-1.5-9.23-3.86-13.56-5.88-8.47-3.93-14.19-7-21.54-6.71,0,0-5.45,3.74-3.86,15.08,1.68,11.91,8,15.45,8,15.45.85-3.15,1.22-5.27,1.91-8.39,7.64,3.72,26,8.32,34.26,11.07,8.57,2.86,12.62,2.18,14.72-5.44.8-2.9,1.95-12,2.73-21.73A194.21,194.21,0,0,0,439.16,116Z" style="fill:#ffa8a7"></path><path d="M336.75,186.06s19.41,11.79,43.5-.66l2.53,7.92c-7.84,7.77-31.67,11.91-45.7,2.07Z" style="fill:#455a64"></path><path d="M355.35,79.13c-5.45,3.13-10.74,10.11-10.41,24.49a7.61,7.61,0,0,0-3.48,7.34c.36,4.49,3.84,8.13,7.78,8.12s6.84-3.66,6.49-8.15a9.06,9.06,0,0,0-4.93-7.48c0-.11-1.39-4.92,2.53-13.62,4.81-10.7,19.81-13,26.24-12.49C379.57,75.67,366.41,72.79,355.35,79.13Z" style="fill:#C10C4C"></path><path d="M355.35,79.13c-5.45,3.13-10.74,10.11-10.41,24.49a7.61,7.61,0,0,0-3.48,7.34c.36,4.49,3.84,8.13,7.78,8.12s6.84-3.66,6.49-8.15a9.06,9.06,0,0,0-4.93-7.48c0-.11-1.39-4.92,2.53-13.62,4.81-10.7,19.81-13,26.24-12.49C379.57,75.67,366.41,72.79,355.35,79.13Z" style="opacity:0.45"></path><path d="M355.84,110.93c-.36-4.57-3.9-8.26-7.9-8.25a6.2,6.2,0,0,0-1.79.27c-.48.15-2,.78-2.26.89-2.79,1.11-4.61,4.2-4.32,7.84.36,4.56,3.89,8.26,7.89,8.25a6.13,6.13,0,0,0,2.15-.4c.35-.13,1.74-.69,2.08-.84C354.38,117.53,356.12,114.49,355.84,110.93Z" style="fill:#C10C4C"></path><path d="M355.84,110.93c-.36-4.57-3.9-8.26-7.9-8.25a6.2,6.2,0,0,0-1.79.27c-.48.15-2,.78-2.26.89-2.79,1.11-4.61,4.2-4.32,7.84.36,4.56,3.89,8.26,7.89,8.25a6.13,6.13,0,0,0,2.15-.4c.35-.13,1.74-.69,2.08-.84C354.38,117.53,356.12,114.49,355.84,110.93Z" style="opacity:0.30000000000000004"></path><path d="M354.05,111.65c-.36-4.57-3.89-8.26-7.89-8.25s-7,3.72-6.59,8.28,3.89,8.26,7.89,8.25S354.41,116.21,354.05,111.65Z" style="fill:#C10C4C"></path><path d="M354.05,111.65c-.36-4.57-3.89-8.26-7.89-8.25s-7,3.72-6.59,8.28,3.89,8.26,7.89,8.25S354.41,116.21,354.05,111.65Z" style="opacity:0.1"></path><path d="M350.23,111.66a4,4,0,0,0-3.73-3.89c-1.89,0-3.28,1.75-3.11,3.9a4,4,0,0,0,3.73,3.89C349,115.56,350.4,113.81,350.23,111.66Z" style="fill:#455a64"></path></g></g><g id="freepik--musical-notes--inject-13"><path id="freepik--musical-note--inject-13" d="M293.89,88.24l6.22,14.23a3.8,3.8,0,0,0-1.34.32,4.06,4.06,0,1,0,5.36,2.08l-5.57-12.76,11.36-9h0l5.55,12.63a3.86,3.86,0,0,0-1.35.32,4.06,4.06,0,1,0,5.36,2.09h0l-9.26-21.09Z" style="fill:#C10C4C"></path><path id="freepik--musical-note--inject-13" d="M411.73,184.11a5.78,5.78,0,0,1,2.36-.1,11.93,11.93,0,0,1,3,1,22.23,22.23,0,0,0,4,1.54,5.26,5.26,0,0,0,4.1-.56,5.54,5.54,0,0,1-2.33-.8c-1.69-1.06-2.78-3.26-4.22-4.64-2.14-2.06-4.6-2.43-7.74-2.27-.51,2.55-1.09,5.09-1.63,7.64q-.64,3-1.28,6c0,.19-.65,2.7-.65,2.7a5.49,5.49,0,0,0-2.12-1,4.39,4.39,0,1,0,3.38,5.2Z" style="fill:#C10C4C"></path></g></svg>