<svg xmlns="http://www.w3.org/2000/svg" viewBox="0 0 500 500"><g id="freepik--background-simple--inject-15"><path d="M248.27,73s-65.36,3.31-107.56,58.66-43.36,131-45.93,192.23,33.34,107.61,85.94,113.72,66.79-40.91,125.81-67.38,78.7-24.57,114-78.92,10.61-137.89-53.4-180.74S248.27,73,248.27,73Z" style="fill:#FFFFFF"></path><path d="M248.27,73s-65.36,3.31-107.56,58.66-43.36,131-45.93,192.23,33.34,107.61,85.94,113.72,66.79-40.91,125.81-67.38,78.7-24.57,114-78.92,10.61-137.89-53.4-180.74S248.27,73,248.27,73Z" style="fill:#fff;opacity:0.7000000000000001"></path></g><g id="freepik--Icons--inject-15"><path d="M145.38,296.3a5.24,5.24,0,0,1-5.23-5.24V232.8a4.53,4.53,0,0,0-9.06,0v43.5a4.65,4.65,0,0,1-9.29,0v-24a3.35,3.35,0,1,0-6.69,0v8.93h-7.38v-1h6.38v-7.93a4.35,4.35,0,1,1,8.69,0v24a3.65,3.65,0,0,0,7.29,0V232.8a5.53,5.53,0,0,1,11.06,0v58.26a4.24,4.24,0,1,0,8.47,0V220a6.72,6.72,0,1,1,13.43,0v70.75a4.53,4.53,0,0,0,9.06,0V234.36a6.42,6.42,0,1,1,12.84,0V276a3.94,3.94,0,0,0,7.88,0V253.34a4.74,4.74,0,0,1,9.47,0v6.87h7.37v1H201.3v-7.87a3.74,3.74,0,0,0-7.47,0V276a4.94,4.94,0,0,1-9.88,0V234.36a5.42,5.42,0,1,0-10.84,0v56.38a5.53,5.53,0,0,1-11.06,0V220a5.72,5.72,0,1,0-11.43,0v71.07A5.25,5.25,0,0,1,145.38,296.3Z" style="fill:#263238"></path><path d="M241.88,296.3a5.24,5.24,0,0,1-5.23-5.24V232.8a4.53,4.53,0,0,0-9.06,0v43.5a4.65,4.65,0,0,1-9.29,0v-24a3.35,3.35,0,1,0-6.69,0v8.93h-7.38v-1h6.38v-7.93a4.35,4.35,0,1,1,8.69,0v24a3.65,3.65,0,0,0,7.29,0V232.8a5.53,5.53,0,0,1,11.06,0v58.26a4.24,4.24,0,1,0,8.47,0V220a6.72,6.72,0,1,1,13.43,0v70.75a4.53,4.53,0,1,0,9.06,0V234.36a6.42,6.42,0,0,1,12.84,0V276a3.94,3.94,0,0,0,7.88,0V253.34a4.73,4.73,0,0,1,9.46,0v6.87h7.38v1h-8.38v-7.87a3.73,3.73,0,0,0-7.46,0V276a4.94,4.94,0,0,1-9.88,0V234.36a5.42,5.42,0,0,0-10.84,0v56.38a5.53,5.53,0,0,1-11.06,0V220a5.72,5.72,0,1,0-11.43,0v71.07A5.25,5.25,0,0,1,241.88,296.3Z" style="fill:#263238"></path><path d="M338.38,296.3a5.24,5.24,0,0,1-5.23-5.24V232.8a4.53,4.53,0,1,0-9.06,0v43.5a4.65,4.65,0,0,1-9.29,0v-24a3.35,3.35,0,1,0-6.69,0v8.93h-7.39v-1h6.39v-7.93a4.35,4.35,0,1,1,8.69,0v24a3.65,3.65,0,0,0,7.29,0V232.8a5.53,5.53,0,1,1,11.06,0v58.26a4.24,4.24,0,1,0,8.47,0V220a6.72,6.72,0,1,1,13.43,0v70.75a4.53,4.53,0,1,0,9.06,0V234.36a6.42,6.42,0,0,1,12.84,0V276a3.94,3.94,0,0,0,7.88,0V253.34a4.73,4.73,0,0,1,9.46,0v6.87h7.38v1h-8.38v-7.87a3.73,3.73,0,0,0-7.46,0V276a4.94,4.94,0,0,1-9.88,0V234.36a5.42,5.42,0,0,0-10.84,0v56.38a5.53,5.53,0,1,1-11.06,0V220a5.72,5.72,0,1,0-11.43,0v71.07A5.25,5.25,0,0,1,338.38,296.3Z" style="fill:#263238"></path><polygon points="252.21 106.59 252.21 97.32 244.19 101.95 252.21 106.59" style="fill:#263238"></polygon><rect x="241.52" y="97.1" width="1.46" height="9.47" style="fill:#263238"></rect><polygon points="294.67 106.59 302.7 101.95 294.67 97.32 294.67 106.59" style="fill:#263238"></polygon><rect x="303.91" y="97.1" width="1.46" height="9.47" style="fill:#263238"></rect><path d="M273.91,88.49a12.34,12.34,0,1,0,12.34,12.34A12.34,12.34,0,0,0,273.91,88.49Zm-1.75,18.84h-3.67v-13h3.67Zm7.17,0h-3.67v-13h3.67Z" style="fill:#263238"></path><rect x="316.94" y="404.75" width="11.63" height="4.23" style="fill:#263238"></rect><rect x="316.94" y="398.76" width="11.63" height="4.23" style="fill:#263238"></rect><rect x="316.94" y="392.77" width="11.63" height="4.23" style="fill:#263238"></rect><rect x="316.94" y="386.78" width="11.63" height="4.23" style="fill:#263238"></rect><rect x="347.06" y="404.75" width="11.63" height="4.23" style="fill:#263238"></rect><rect x="347.06" y="398.76" width="11.63" height="4.23" style="fill:#263238"></rect><rect x="286.81" y="404.75" width="11.63" height="4.23" style="fill:#263238"></rect><rect x="286.81" y="398.76" width="11.63" height="4.23" style="fill:#263238"></rect><rect x="301.87" y="404.75" width="11.63" height="4.23" style="fill:#263238"></rect><rect x="301.87" y="398.76" width="11.63" height="4.23" style="fill:#263238"></rect><rect x="301.87" y="392.77" width="11.63" height="4.23" style="fill:#263238"></rect><rect x="301.87" y="386.78" width="11.63" height="4.23" style="fill:#263238"></rect><rect x="301.87" y="380.79" width="11.63" height="4.23" style="fill:#263238"></rect><rect x="301.87" y="374.8" width="11.63" height="4.23" style="fill:#263238"></rect><rect x="301.87" y="368.81" width="11.63" height="4.23" style="fill:#263238"></rect><rect x="332" y="404.75" width="11.63" height="4.23" style="fill:#263238"></rect><rect x="332" y="398.76" width="11.63" height="4.23" style="fill:#263238"></rect><rect x="332" y="392.77" width="11.63" height="4.23" style="fill:#263238"></rect><rect x="332" y="386.78" width="11.63" height="4.23" style="fill:#263238"></rect><rect x="332" y="380.79" width="11.63" height="4.23" style="fill:#263238"></rect><rect x="332" y="374.8" width="11.63" height="4.23" style="fill:#263238"></rect><path d="M85.29,182.3a1.5,1.5,0,0,1-1.5-1.5V167.25a1.5,1.5,0,0,1,3,0V180.8A1.5,1.5,0,0,1,85.29,182.3Z" style="fill:#263238"></path><path d="M80.38,180.51a1.5,1.5,0,0,1-1.5-1.5V169a1.5,1.5,0,0,1,3,0v10A1.5,1.5,0,0,1,80.38,180.51Z" style="fill:#263238"></path><path d="M75.47,180.51A1.5,1.5,0,0,1,74,179V169a1.5,1.5,0,0,1,3,0v10A1.5,1.5,0,0,1,75.47,180.51Z" style="fill:#263238"></path><path d="M134.37,180.51a1.5,1.5,0,0,1-1.5-1.5V169a1.5,1.5,0,1,1,3,0v10A1.5,1.5,0,0,1,134.37,180.51Z" style="fill:#263238"></path><path d="M129.47,180.51A1.5,1.5,0,0,1,128,179V169a1.5,1.5,0,0,1,3,0v10A1.5,1.5,0,0,1,129.47,180.51Z" style="fill:#263238"></path><path d="M90.2,182.3a1.5,1.5,0,0,1-1.5-1.5V167.25a1.5,1.5,0,0,1,3,0V180.8A1.5,1.5,0,0,1,90.2,182.3Z" style="fill:#263238"></path><path d="M95.11,184.68a1.5,1.5,0,0,1-1.5-1.5V164.86a1.5,1.5,0,0,1,3,0v18.32A1.5,1.5,0,0,1,95.11,184.68Z" style="fill:#263238"></path><path d="M100,188.44a1.51,1.51,0,0,1-1.5-1.5V161.11a1.5,1.5,0,0,1,3,0v25.83A1.5,1.5,0,0,1,100,188.44Z" style="fill:#263238"></path><path d="M124.56,182.3a1.5,1.5,0,0,1-1.5-1.5V167.25a1.5,1.5,0,0,1,3,0V180.8A1.5,1.5,0,0,1,124.56,182.3Z" style="fill:#263238"></path><path d="M119.65,182.3a1.5,1.5,0,0,1-1.5-1.5V167.25a1.5,1.5,0,0,1,3,0V180.8A1.5,1.5,0,0,1,119.65,182.3Z" style="fill:#263238"></path><path d="M114.74,184.68a1.5,1.5,0,0,1-1.5-1.5V164.86a1.5,1.5,0,0,1,3,0v18.32A1.5,1.5,0,0,1,114.74,184.68Z" style="fill:#263238"></path><path d="M109.83,188.44a1.5,1.5,0,0,1-1.5-1.5V161.11a1.5,1.5,0,0,1,3,0v25.83A1.5,1.5,0,0,1,109.83,188.44Z" style="fill:#263238"></path><path d="M104.92,193.21a1.5,1.5,0,0,1-1.5-1.5V156.33a1.5,1.5,0,0,1,3,0v35.38A1.5,1.5,0,0,1,104.92,193.21Z" style="fill:#263238"></path><path d="M404.78,169.28a12.07,12.07,0,0,0-23.53.14,12.07,12.07,0,0,0,.71,24l.22-2.42a9.64,9.64,0,0,1,.19-19.21l1-.07.14-1a9.63,9.63,0,0,1,19.08,0l.16,1.18,1.19-.13a9.48,9.48,0,0,1,1.08-.07A9.65,9.65,0,0,1,405,191v2.44a12.08,12.08,0,1,0-.22-24.16Z" style="fill:#263238"></path><path d="M400.79,179.05a1.21,1.21,0,0,0-.49-1,1.23,1.23,0,0,0-1.08-.19l-12.81,3.8a1.21,1.21,0,0,0-.87,1.17v14.66a3.83,3.83,0,0,0-1.36-.26,3.78,3.78,0,1,0,3.74,4.1H388V190.16l10.38-3.07v6.48a3.66,3.66,0,0,0-1.33-.26,3.77,3.77,0,1,0,3.77,3.77v-18Zm-2.44,5.49L388,187.62v-3.86l10.38-3.08Z" style="fill:#263238"></path><path d="M140.09,351.83a16,16,0,1,0,16,16A16,16,0,0,0,140.09,351.83Zm0,21.83a5.8,5.8,0,1,1,5.8-5.8A5.8,5.8,0,0,1,140.09,373.66Z" style="fill:#263238"></path><path d="M140.09,326.59a9.89,9.89,0,1,0,9.89,9.89A9.88,9.88,0,0,0,140.09,326.59Zm0,13.46a3.58,3.58,0,1,1,3.57-3.57A3.57,3.57,0,0,1,140.09,340.05Z" style="fill:#263238"></path><path d="M156.74,389.05h-33.3a4.45,4.45,0,0,1-4.45-4.44V325.46a4.45,4.45,0,0,1,4.45-4.44h33.3a4.44,4.44,0,0,1,4.44,4.44v59.15A4.44,4.44,0,0,1,156.74,389.05Zm-33.3-67a3.45,3.45,0,0,0-3.45,3.44v59.15a3.45,3.45,0,0,0,3.45,3.44h33.3a3.45,3.45,0,0,0,3.44-3.44V325.46a3.45,3.45,0,0,0-3.44-3.44Z" style="fill:#263238"></path></g></svg>