<svg xmlns="http://www.w3.org/2000/svg" viewBox="0 0 500 500"><g id="freepik--Shadow--inject-7"><path id="freepik--shadow--inject-7" d="M165,389.51a142.57,142.57,0,0,1,30.54,15.1c10.7,7,20.49,15.48,31.89,21.29,14.81,7.56,31.79,10.27,48.4,9.45,9.4-.46,19.63-2.5,25.62-9.76a10.75,10.75,0,0,0,2.77-6.53c0-3.54-2.45-6.57-5-9-13.73-13-32.84-18.29-51.27-22.43s-29.49-9.35-47.6-18.73c-7.75-4-15.39-8.33-23.2-12.11l-.19-.09c-4-1.91-7.69-4-11.86-5.52A92,92,0,0,0,144.54,346a42,42,0,0,0-20.85,2.5,9.29,9.29,0,0,0-4.38,3.13,7.53,7.53,0,0,0-1,4.42,16,16,0,0,0,3.26,8.69,33.7,33.7,0,0,0,6.71,6.57C139,379.7,152.17,385,165,389.51Z" style="fill:#e0e0e0"></path></g><g id="freepik--Character--inject-7"><g id="freepik--character--inject-7"><g id="freepik--Bottom--inject-7"><path d="M130.74,322a10.91,10.91,0,0,1,.34-3.31c.74-2.72,2-6,3.9-8,2.18-2.31,4.59-4.49,6.35-7.16a39.12,39.12,0,0,0,4.5-8.95c.89-2.52,1.45-5.42,2.95-7.66,4.58-6.81,12.62-4.11,17.47-3.81L185.84,275l.92,23.92s-9.85,1.16-12.81,1.92c-3.93,1-8.22,4.67-11.08,7.33-3.63,3.39-7.94,6.78-9.16,11.79a40.33,40.33,0,0,0-.75,8.36,7.48,7.48,0,0,1-.32,2.36c-.73,2.08-3,3.13-5,4-3.29,1.36-7.18,2.69-10.25.88a10.8,10.8,0,0,1-3.76-4.68A22.48,22.48,0,0,1,130.74,322Z" style="fill:#b16668"></path><path d="M147.33,341a11.41,11.41,0,0,1-6.69-1.12,22.43,22.43,0,0,1-5.46-3.58c-5.14-4.45-8-10.88-7.37-15.78.53-4.49,6-12.95,7.5-15.34,1.83-2.9,2.89-7.64,3.11-10.51.12-1.68,2.3-11.44,3.35-12.35l7-.27s-3.61,4.6-4,8-4,17.58-6,21-2.77,10.38-.67,15.43,12.49,11.89,12.49,11.89Z" style="fill:#263238"></path><path d="M153.89,321.48l-4.21-5.82s2.53-13.74,5.43-18.67,5.25-4.89,5.69-3.44c1.39,4.58,8.26,9.42,9.94,8.61.63,2-2.15,1.45-5.33,4.67C162.42,309.85,156.73,314.27,153.89,321.48Z" style="fill:#37474f"></path><path d="M139.56,301.81a26.49,26.49,0,0,1-3.41,6.73c-3.4,5.09-6.25,11.37-4.54,17.62a14.92,14.92,0,0,0,4.06,6.56,38.21,38.21,0,0,0,6.18,4.76c2,1.31,6,2.23,6.66,2,2-.85,4-2.45,4.48-4.68.81-3.64.77-7.44,1.55-11.09a21.23,21.23,0,0,1,1.41-5.45,29.92,29.92,0,0,1,3.66-5,72.22,72.22,0,0,1,5.8-6.43c-2.36,2.28-9.5,8.16-11.33,12.43l-3-4.09a99,99,0,0,1,2.76-11,27.82,27.82,0,0,1,3.63-7,4.68,4.68,0,0,0,1-3.7c-.27-1.27-1.23-2.29-1.6-3.55a4.27,4.27,0,0,1,.27-3.33,5.79,5.79,0,0,1,3.16-2.14,39.76,39.76,0,0,1,6-1.37.91.91,0,0,0-.7-1.21c-.92-.17-1.86-.26-2.79-.35l-6.29-.6a37.8,37.8,0,0,0-5.83-.05,8.06,8.06,0,0,0-2.68.44,7.11,7.11,0,0,0-3.06,2.94,29.88,29.88,0,0,0-3.67,8.85C140.52,296,140.42,299,139.56,301.81Z" style="fill:#455a64"></path><path d="M151.24,281c.5,1.47-1.55,5.07-4,6.84s-7.82,4.13-8.8,6.86a23.31,23.31,0,0,1,2.08-11.48c.72-1.54,1.89-1.92,3.2-2.39S151.09,280.21,151.24,281Z" style="fill:#BA68C8"></path><path d="M147.39,340.85c1.47-1.74,2.3-3.61,1.09-4.27s-7.41-3.17-9.23-2.93-4.12,2.79-4.12,2.79a17.66,17.66,0,0,0,6,4C145.08,342.08,147.39,340.85,147.39,340.85Z" style="fill:#BA68C8"></path><path d="M155.54,293.49a.89.89,0,1,0,1.23.26A.89.89,0,0,0,155.54,293.49Z" style="fill:#BA68C8"></path><path d="M150.16,311.82a1.6,1.6,0,0,1,1,.4c.31.2.61.41.91.64a11,11,0,0,1,1.54,1.51,12,12,0,0,1,1.24,1.75,5.57,5.57,0,0,1,.83,2.13c0,.25-.45.23-.54.06-.36-.63-.62-1.31-1-1.95a11,11,0,0,0-1.17-1.63,12.39,12.39,0,0,0-1.37-1.34c-.24-.2-.49-.39-.74-.57a4.8,4.8,0,0,1-.85-.63A.22.22,0,0,1,150.16,311.82Z" style="fill:#BA68C8"></path><path d="M150.22,311.76a5.7,5.7,0,0,1,2.06,0,10.33,10.33,0,0,1,2.16.48,11.29,11.29,0,0,1,2.06,1,8.16,8.16,0,0,1,1,.68,3.31,3.31,0,0,1,.86.85c.09.14-.18.23-.26.18-.63-.37-1.21-.83-1.85-1.2a10.63,10.63,0,0,0-1.92-.86,9.36,9.36,0,0,0-1.87-.42c-.31,0-.63-.05-.94-.05s-.65,0-1,0a.53.53,0,0,1-.45-.27A.24.24,0,0,1,150.22,311.76Z" style="fill:#BA68C8"></path><path d="M152.44,307.8a18.32,18.32,0,0,1,3.29,9.93c0,.32-.59.33-.59,0a19.13,19.13,0,0,0-3.28-9.77C151.62,307.64,152.24,307.52,152.44,307.8Z" style="fill:#BA68C8"></path><path d="M152,307.78a6.81,6.81,0,0,1,2.37.17,11.27,11.27,0,0,1,2.42.75A11.91,11.91,0,0,1,159,310a8.75,8.75,0,0,1,1.06.87,3.61,3.61,0,0,1,.89,1.05c.09.16-.22.23-.32.17-.68-.47-1.3-1.06-2-1.53a11.41,11.41,0,0,0-2.11-1.15,10.61,10.61,0,0,0-2.1-.65,9.83,9.83,0,0,0-1.07-.15c-.37,0-.74,0-1.11-.05a.61.61,0,0,1-.49-.35A.28.28,0,0,1,152,307.78Z" style="fill:#BA68C8"></path><path d="M153.66,304.12a8.38,8.38,0,0,1,2.82.23,14.09,14.09,0,0,1,2.83.89,13.91,13.91,0,0,1,2.56,1.49,10.23,10.23,0,0,1,1.18,1,4.1,4.1,0,0,1,.95,1.2c.08.19-.3.27-.41.19-.77-.54-1.44-1.22-2.21-1.76A12.85,12.85,0,0,0,159,306a13.15,13.15,0,0,0-2.45-.77,11.12,11.12,0,0,0-1.27-.19c-.44-.05-.9,0-1.33-.08a.66.66,0,0,1-.55-.4A.35.35,0,0,1,153.66,304.12Z" style="fill:#BA68C8"></path><path d="M154.14,304.88c2.33,2.67,3.41,6.18,4.3,9.54.08.31-.5.38-.58.1-1.05-3.31-2.09-6.61-4.28-9.37C153.3,304.81,153.92,304.62,154.14,304.88Z" style="fill:#BA68C8"></path><path d="M155.52,300.29c2.84,3.35,5.3,8,5.74,11.46.05.37-.56.38-.63.05a26.55,26.55,0,0,0-5.69-11.27C154.6,300.1,155.25,300,155.52,300.29Z" style="fill:#BA68C8"></path><path d="M262.06,206.05s2.53,40-5.11,66.93c-4.76,16.76-23.61,18.35-27.64,19.22-17.86,3.85-51,7.84-51,7.84s-8.73-10.39-4.16-20.21C189,272.19,206,260.5,219.06,261l23.74-56.78Z" style="fill:#37474f"></path><path d="M250.42,239.55S258,234.4,259,221.73l-26.52,7.1h0L219.06,261h0c-.54,0-1.09,0-1.64,0l-.41,0c-.55,0-1.1.07-1.66.14h0c-.58.07-1.17.17-1.77.27l-.35.07c-.59.11-1.18.24-1.77.38a59.28,59.28,0,0,0-9.69,3.41l16.58,29h0l2.74-.48.32-.06,2.69-.5h.06l2.33-.45.57-.12,2.27-.47h0c4-.87,22.88-2.46,27.64-19.22.54-1.89,1-3.84,1.46-5.84Z" style="fill:#263238"></path><path d="M274.42,376.33c-1.62.12-1.7-2-2.38-7-.75-5.49-3.64-27-3.64-27l-25.89,10.21s6.72,17.7,8.83,22.8c2.34,5.67,5.62,13.44,6.16,17.86s.78,16.72,6.31,18.93,10.67-.32,14.33-2.71,7.88-10.74,11.92-15,7.45-6.58,10.58-11,2.88-15.18-1.34-17.43-10.23.32-13.76,2.44S277.42,376.13,274.42,376.33Z" style="fill:#b16668"></path><path d="M205.56,195.31c-9.35,10.78-13.62,20.07-14.05,29.5-.45,10.07,2.94,19.36,6.94,26.83,7.74,14.46,14,23.08,31.17,55.9,0,7.37.19,14.7,5.58,28.52,6.7,17.18,14.68,35.65,14.68,35.65s6-10.83,21.17-9.23c-.79-8.46-5.85-48.77-8.32-60.68-3.07-14.82-16.29-63.62-16.29-63.62s15.4-10,15.62-32.13Z" style="fill:#37474f"></path><path d="M246,329.85c-6-18.43-3.43-23.28-6.06-29.92s-21-39.11-24.58-48.07c-3.44-8.55-12.38-27.51,1-48.07l-5.71-3.18c-14.44,21.29-10.2,39.42-1.88,55.62,8.78,17.11,21.62,41.78,24.17,46.3s-.5,11.69,5.52,29.57c2.82,8.4,9.54,27.3,13.3,37.08a20.58,20.58,0,0,1,6.76-4.9C254.41,353.45,247.63,334.87,246,329.85Z" style="fill:#BA68C8"></path><path d="M299.9,365.55c-2.47-2.35-6.4-2.31-11.61.29a30.58,30.58,0,0,0-9.26,6.72c-.8,1-1.59,1.68-2.94,1.24a9,9,0,0,1-1.25-.61c-2.91-1.49-6.44-.22-9.34,1.3a1.86,1.86,0,0,0-.78.6c-.5.81.36,1.77,1.15,2.3a8.14,8.14,0,0,1,2,1.92l-2.21-.54a3.16,3.16,0,0,0-1.36-.13,2.9,2.9,0,0,0-1.72,1.69,17.37,17.37,0,0,0-1.24,3,6.15,6.15,0,0,1-1.3,2.79,2.79,2.79,0,0,1-2.79.59,3.51,3.51,0,0,1-2.21-2.11c-.07.07-.14.14-.23.57a1.83,1.83,0,0,0,0,.84c.19.78.73,1.43,1,2.19a30.61,30.61,0,0,1,1.26,7.23c.57,6.46,1.32,10,2.5,13.26l27.17-26.27-1.8-2.3C291,376.45,299.9,365.55,299.9,365.55Z" style="fill:#455a64"></path><path d="M303.66,370.09a5.35,5.35,0,0,0-2-3.54c-.34-.22-1.54-.85-1.77-1-3.07-2-8.57,2.29-13.21,6.5-5.4,4.89-10.39,14.72-14.76,21.38s-9.79,9.22-11.58,12.15a4.84,4.84,0,0,0,.52,6c.28.31,1.3,1.26,1.51,1.46,1.43,1.37,4,1.93,7,1.35,6-1.16,10.4-3.08,15.41-10.21s7.65-10.82,13.49-15.4S304.91,375.83,303.66,370.09Z" style="fill:#37474f"></path><path d="M303.66,370.09c-1.75-8-9.2-2.47-15.19,3-5.4,4.89-10.39,14.73-14.76,21.38s-9.93,9.14-11.59,12.15c-3,5.48,1.17,8.93,7.23,7.76s10.4-3.08,15.41-10.21,7.65-10.82,13.49-15.4S304.91,375.83,303.66,370.09Z" style="fill:#263238"></path><path d="M262.51,413.12c-3.88-1.59-4.64-10.74-4.92-13.07s1.72-4.39,5.36-3.08a22.1,22.1,0,0,0,8.1.92,39.24,39.24,0,0,1-5.32,5.34C263.33,405.23,259.56,410.2,262.51,413.12Z" style="fill:#BA68C8"></path><path d="M291,370.88c1.23-1.49-.48-3.52-.53-4.6s1-2.21,4.06-2.57,3.92-.27,5.41.72a10.29,10.29,0,0,1,2.58,2.87,4.57,4.57,0,0,0-3.71-.88C294.66,367.05,291,370.88,291,370.88Z" style="fill:#BA68C8"></path><path d="M266.26,381.85a1.2,1.2,0,1,1-2.4,0,1.2,1.2,0,1,1,2.4,0Z" style="fill:#BA68C8"></path></g><g id="freepik--Top--inject-7"><path d="M346.33,160.83c.25-.87,0-1.63.27-2.46s.82-1.48,1-2.34c.29-1.31-.34-1.95-1.2-3.22a3,3,0,0,1-.58-1.68,9.06,9.06,0,0,1,.44-1.72,5.14,5.14,0,0,0-1.91-5.14c.29-1.84.45-2.75.77-4.56a1.14,1.14,0,0,0-.13-.85.6.6,0,0,0-.48-.22,3.4,3.4,0,0,0-2.47.65,9.06,9.06,0,0,0-3,3.74,95.16,95.16,0,0,1-5.25,8.05c-.53.67-3.81,5.38-4.67,2.59a2.93,2.93,0,0,1,.17-1.62,15.46,15.46,0,0,0,.53-5,5.21,5.21,0,0,0-.45-2c-.36-.71-1.42-1.65-2.28-1.11s-1.1,2.26-1.43,3a62.89,62.89,0,0,1-3.39,6.77,25.89,25.89,0,0,0-2.95,6.37,14.27,14.27,0,0,1-.84,2,14,14,0,0,1-5.8,5.58c-3.84,2.21-19.69,11.12-19.69,11.12s-1.84-3.14-9.18-19.38c-5.22-11.54-12.81-27.58-23.78-27.58,0,0-.91,19.6-1.37,33.18,5.82,10.17,15.12,26.63,19.88,32.79,5.55,7.21,9.5,10,15.42,7,10.38-5.22,19.33-15.18,25.74-20.81a77,77,0,0,1,12-8.84,51.74,51.74,0,0,0,7.44-5.1C341.25,168.29,345.64,163.3,346.33,160.83Z" style="fill:#b16668"></path><path d="M331.16,161.94a12,12,0,0,0,.38-2.15,4.8,4.8,0,0,0-.08-2c-.07-.21-.45-.47-.57-.15a9.12,9.12,0,0,0-.32,2,16.73,16.73,0,0,1-.39,1.84,13.38,13.38,0,0,1-1.48,3.46,10.65,10.65,0,0,1-2.41,2.69,21.88,21.88,0,0,1-2.85,1.77c-.09,0-.13.33,0,.32,2.49-.11,4.71-2.1,6.06-4.06A11.69,11.69,0,0,0,331.16,161.94Z" style="fill:#9a4a4d"></path><path d="M293,178.75a20.12,20.12,0,0,0-7.81,8.68,11.19,11.19,0,0,1,2.66-6.53c2.7-3.36,4.15-4.07,4.15-4.07Z" style="fill:#9a4a4d"></path><path d="M315.68,165.56c-.64-.81-4.74,1.26-5,2.33s-1.34,3.56,2.72,9.84,6.54,6.31,7.71,5.74a25.08,25.08,0,0,0,4.15-3.26.75.75,0,0,0,.05-.75l-1.06.73a15.64,15.64,0,0,1-6.34-6c-2.93-4.6-3.05-7.94-3.05-7.94Z" style="fill:#37474f"></path><path d="M207.51,185c.31,3.37.85,6.88-1.95,10.27,2.34,9.15,22.27,14.48,35.36,14.63,18,.21,21.14-3.89,21.14-3.89l1.09-11.42Z" style="fill:#b16668"></path><path d="M276.65,161.47c-4.75-15.85-16.57-29.68-16.57-29.68C257.31,131.29,236,128,236,128s-11.67.92-19.07,2c-3.8,2.29-6.76,5.86-9.92,12.53-1.34,2.83-4.08,13.66-3.37,18.22,1.5,9.59,4,26.88,4,26.88,8.91,14.64,46.41,15.38,55.24,9.39l1.78-13C276.35,180.73,279,169.22,276.65,161.47Z" style="fill:#f0f0f0"></path><path d="M248.38,181.53a21.19,21.19,0,0,1-18.7,0c-9.51-4.87-10.09-13.9-8.94-17.27,0,0-5.5,13.44,6.32,19.64C241.84,191.64,248.38,181.53,248.38,181.53Z" style="fill:#e0e0e0"></path><path d="M221.84,70.45a8.55,8.55,0,0,0-7.44,6.6,7.41,7.41,0,0,0-6.86-1.35c-2.27.87-3.77,3.74-2.64,5.89A3.22,3.22,0,0,1,202,78.08a6.19,6.19,0,0,0-1.29,4.55A3.67,3.67,0,0,0,204,85.74a5,5,0,0,0-4.25,2.53,6.49,6.49,0,0,0-.53,6.38A4.71,4.71,0,0,0,204.82,97a4.54,4.54,0,0,0,4.54,7.73,3.65,3.65,0,0,0,3.39,4.62,2.8,2.8,0,0,1-.2-4.46,3.41,3.41,0,0,0,2,3.42,10,10,0,0,0,4.1.83,10.94,10.94,0,0,0,5.13-.53c2.54-1.15,3.78-4,4.79-6.59l1-25.65A7.49,7.49,0,0,0,221.84,70.45Z" style="fill:#263238"></path><path d="M223.48,81.15c-5.54,2-6.69,11.94-1,17.15S231.89,77.56,223.48,81.15Z" style="fill:#BA68C8"></path><g id="freepik--Head--inject-7"><path d="M277.12,81.33c.06-6.75-7.36-8.18-9.38-8.25a9.54,9.54,0,0,1-7.16-4.4,9.56,9.56,0,0,0-8.74-4.12c-5.51.56-4.63,3-9.35,3.8-4.21.74-7-1-11.15,1.88a10.49,10.49,0,0,0-4.05,8.28c-3,1.27-8.19,10.76-4.28,22.66,2,6.11,5.07,9.29,8.67,14.65l4.17.65c1.91-3.33,5.37-2.12,8.75-2.43,2.22-.62,3.77-2.77,6-3.38s4.62.46,7,.41c1.82,0,3.77-.82,5.54-.07,3.94,2.34,10.81-.34,11.08-5.25.07-1.49-.52-3,0-4.45.66-1.84,2.85-2.58,4.17-4a5.11,5.11,0,0,0,.63-6.11C276.43,87.48,277.09,85.16,277.12,81.33Z" style="fill:#263238"></path><path d="M230.74,123.7c.25-2.2,1.06-12.54,1.06-12.54-.18.81-5.1,2.6-8.24-2s-2-8.88.41-11.54c2.7-2.94,8-2.22,9.53,3.2,1.59.19,4.16.17,4.27-8.13,1.13-9.9,11.63-17,19-9.29,3.75-5.2,10.2-2.26,12.08,3.4,1,3.52,1.31,4.73-.06,11.06-.23,1.06.83,3.49.18,8.27-1.6,11.84-5.1,15-8.87,17-2.24,1.19-4.66,1.67-9,.85l-.26,2.87h0c-.11,1.85-.36,2.28,1.29,3.09a19.8,19.8,0,0,0,3.58,1.06s7.34,14.67-9.08,15c-15.83.28-21.6-17-21.6-17a28.43,28.43,0,0,0,2.91-.57C229.79,128,230.49,125.9,230.74,123.7Z" style="fill:#b16668"></path><path d="M230.54,103.45a2.48,2.48,0,0,1-1.15,2,2.64,2.64,0,0,1-1.25.39c-.27,0-.2.42,0,1.66l.11.8a.78.78,0,0,1-.58.94h0a.78.78,0,0,1-.94-.59L225.66,104a2.59,2.59,0,0,1,1.84-3.15A2.5,2.5,0,0,1,230.54,103.45Z" style="fill:#fafafa"></path><path d="M248,109.42l6,2.6a3.21,3.21,0,0,1-4.24,1.8A3.41,3.41,0,0,1,248,109.42Z" style="fill:#9a4a4d"></path><path d="M248.24,110.88a3.59,3.59,0,0,1,3.28,3.14,3.12,3.12,0,0,1-1.8-.2,3.35,3.35,0,0,1-2-2.92A3.85,3.85,0,0,1,248.24,110.88Z" style="fill:#f28f8f"></path><path d="M267.15,93.83,263,91.06a2.39,2.39,0,0,1,3.4-.76A2.63,2.63,0,0,1,267.15,93.83Z" style="fill:#263238"></path><path d="M244.86,92.18,249.43,90a2.42,2.42,0,0,0-3.3-1.25A2.66,2.66,0,0,0,244.86,92.18Z" style="fill:#263238"></path><path d="M261.66,98.42a2.14,2.14,0,0,0,1.68,2.45,2,2,0,0,0,2.41-1.6,2.14,2.14,0,0,0-1.68-2.45A2,2,0,0,0,261.66,98.42Z" style="fill:#263238"></path><path d="M246.61,97.24a2.14,2.14,0,0,0,1.68,2.45,2,2,0,0,0,2.41-1.6A2.14,2.14,0,0,0,249,95.64,2,2,0,0,0,246.61,97.24Z" style="fill:#263238"></path><polygon points="262.34 105.35 255.47 107.8 255.44 95.05 262.34 105.35" style="fill:#9a4a4d"></polygon><path d="M251.05,124c-7.79-1.61-15.12-4.55-16.55-9.57a8.13,8.13,0,0,0,3.79,7.19,28.68,28.68,0,0,0,12.55,4.7Z" style="fill:#9a4a4d"></path></g><g id="freepik--Arm--inject-7"><path d="M187.87,229.56c-1.87-3-3.23-5.2-3.31-6.32,0-1.81,3.51,2.2,4.9,2.88a4.93,4.93,0,0,0,3.68.57c.81-.14,2-1.18,1.74-2,0-.17-.2-.24-.33-.35a46.94,46.94,0,0,1-5.24-6,55.65,55.65,0,0,0-5.07-5.93c-1.43-1.43-4-3.44-4.43-6.75-1.55-10.84-1.51-16.63-2.39-27.23,8.49-4.88,21.18-12.36,24.92-14.5,5.17-3,8.93-6.53,11.18-11.23,3-6.26,5.2-19,3.61-22.78-16,1.05-20.42,5.88-28.66,11.72-4.64,3.29-7.66,5.37-15,11.11-3.69,2.88-7.37,5.11-14,10.89-2.2,1.92-5.16,4.76-4,11.06a165.1,165.1,0,0,0,4.08,17.6c1.3,4.61,6.28,24.28,6.76,27a55.11,55.11,0,0,0,2.31,8.75c.9,2.38,4.43,8,6.42,9.38.69.5,1.45.54,2.11,1s1.05,1.22,1.75,1.68c1.07.7,1.85.34,3.27,0a2.74,2.74,0,0,1,1.7,0,9.22,9.22,0,0,1,1.38,1,4.9,4.9,0,0,0,5.23,0c1.55.87,2.31,1.32,3.83,2.19a1.08,1.08,0,0,0,.79.17.56.56,0,0,0,.36-.36,3.22,3.22,0,0,0,.23-2.42,8.59,8.59,0,0,0-2.36-3.9A90.1,90.1,0,0,1,187.87,229.56Z" style="fill:#b16668"></path></g><path d="M188,162.4a23.23,23.23,0,0,1-5.16-16.68c-2.46,1.78-5.22,3.86-9.37,7.09l-.41.32c-.12,5.59,2.92,11.41,6.39,16.38a16.4,16.4,0,0,0,5,4.91l10.38-6A23.53,23.53,0,0,1,188,162.4Z" style="fill:#37474f"></path><g id="freepik--Mobile--inject-7"><path d="M161.05,154.83l25.58-16a2.24,2.24,0,0,1,1.82-.16,2.75,2.75,0,0,1,1.59.89l7.84,12a1,1,0,0,1-.31,1.39l-25.57,16a2.44,2.44,0,0,1-1.71.12,3,3,0,0,1-1.71-.86l-7.84-12A.88.88,0,0,1,161.05,154.83Z" style="fill:#37474f"></path><path d="M161.7,155.5l8.06,12.3,25.68-16.11,2.58.56a1,1,0,0,1-.45.63l-25.57,16a2.44,2.44,0,0,1-1.71.12,3,3,0,0,1-1.71-.86l-7.84-12a.92.92,0,0,1-.13-1l.08,0Z" style="fill:#263238"></path><path d="M186.73,139,161.2,155a.79.79,0,0,0-.24,1.1l7.65,11.68a1.13,1.13,0,0,0,1.53.33l25.37-15.9a.7.7,0,0,0,.21-1l-7.86-12A.83.83,0,0,0,186.73,139Z" style="fill:#455a64"></path><path d="M186.2,140.16,162.49,155a.74.74,0,0,0-.23,1l7.08,10.82a.77.77,0,0,0,1.07.23l23.89-15a.76.76,0,0,0,.33-.84.49.49,0,0,0-.1-.21l-2-3-.13-.19a.24.24,0,0,0-.33-.08.25.25,0,0,1-.34-.08l-2.33-3.55a.24.24,0,0,1,.07-.34.22.22,0,0,0,.08-.3v0l-2-3,0-.06A1,1,0,0,0,186.2,140.16Z" style="fill:#37474f"></path><path d="M192.06,146.73,191,145.11a.2.2,0,0,0-.28-.07.2.2,0,0,0-.06.28l1.07,1.62a.21.21,0,0,0,.28.08A.21.21,0,0,0,192.06,146.73Z" style="fill:#263238"></path><path d="M190.52,144.23a.24.24,0,0,0-.33-.07.23.23,0,0,0-.07.32.24.24,0,0,0,.33.08A.24.24,0,0,0,190.52,144.23Z" style="fill:#263238"></path><path d="M193.21,154.05a1.28,1.28,0,0,1,.86-.1.48.48,0,0,1,.27.13s.13.19.15.24,0,.12-.08.18l-2.08,1.31a1.37,1.37,0,0,1-.87.1.42.42,0,0,1-.26-.13l-.16-.24c0-.06,0-.13.09-.19Z" style="fill:#455a64"></path><path d="M193.36,154.28l-2.08,1.31c-.19.11-.11.26.18.32a1.37,1.37,0,0,0,.87-.1l2.08-1.31c.19-.11.1-.26-.18-.32A1.37,1.37,0,0,0,193.36,154.28Z" style="fill:#37474f"></path><path d="M189.56,156.33a1.45,1.45,0,0,1,.87-.1.37.37,0,0,1,.26.14l.16.23c0,.06,0,.13-.09.19l-2.08,1.31a1.37,1.37,0,0,1-.87.1.48.48,0,0,1-.26-.13l-.16-.24c0-.06,0-.13.09-.19Z" style="fill:#455a64"></path><path d="M189.71,156.57l-2.08,1.3c-.19.12-.1.27.18.33a1.37,1.37,0,0,0,.87-.1l2.08-1.31c.19-.12.11-.26-.18-.32A1.31,1.31,0,0,0,189.71,156.57Z" style="fill:#37474f"></path></g></g></g><g id="freepik--Lines--inject-7"><polygon points="177.78 310.75 188.36 316.57 198.88 322.47 219.84 334.43 240.68 346.6 251.06 352.76 261.38 359.02 250.8 353.21 240.28 347.3 219.32 335.34 198.48 323.17 188.1 317.01 177.78 310.75" style="fill:#e0e0e0"></polygon><path d="M194.82,335.36c2.37,1.23,4.71,2.53,7.07,3.79l7,3.88c4.67,2.6,9.29,5.28,13.94,7.91s9.24,5.38,13.82,8.12l6.87,4.14c2.27,1.41,4.55,2.79,6.81,4.23-2.38-1.23-4.71-2.52-7.07-3.79l-7-3.88c-4.67-2.6-9.3-5.27-13.94-7.91s-9.24-5.38-13.82-8.12l-6.87-4.14C199.36,338.18,197.07,336.8,194.82,335.36Z" style="fill:#e0e0e0"></path><path d="M151.71,272.13,143,266.94c-5.79-3.45-11.63-6.82-17.44-10.23s-9-5.19-14.92-8.49l-6.26-3.5v.69l5.85,3.5c5.79,3.45,9,5.29,14.8,8.71s11.69,6.72,17.56,10l8.83,4.94c3,1.61,5.9,3.25,8.88,4.84C157.47,275.63,154.58,273.9,151.71,272.13Z" style="fill:#e0e0e0"></path><path d="M107.36,261.51c1.56.77,3.08,1.6,4.62,2.4l4.57,2.48c3,1.66,6,3.4,9,5.13s6,3.51,8.93,5.33l4.41,2.74c1.46,1,2.93,1.87,4.37,2.84-1.56-.77-3.08-1.59-4.63-2.39l-4.56-2.49c-3-1.66-6.05-3.39-9.05-5.12s-6-3.51-8.92-5.34l-4.42-2.74C110.27,263.4,108.8,262.49,107.36,261.51Z" style="fill:#e0e0e0"></path></g></g><g id="freepik--speech-bubble--inject-7"><g id="freepik--speech-bubble--inject-7"><g id="freepik--speech-bubble--inject-7"><path d="M309.79,73a24.55,24.55,0,0,0-10.64,14.67l-.55,2.77a24.67,24.67,0,0,0,48,10.68l.68-2.74A24.67,24.67,0,0,0,309.79,73Z" style="fill:#fff"></path><path d="M308.7,71.17a26.81,26.81,0,0,0-10.35,33l-4.94,6.69A1.56,1.56,0,0,0,295,113.3l8.16-1.62a26.77,26.77,0,1,0,5.58-40.51Zm35.18,9.41a24.56,24.56,0,0,1,3.38,17.81l-.68,2.74a24.66,24.66,0,0,1-48-10.76l.55-2.77a24.66,24.66,0,0,1,44.72-7Z" style="fill:#455a64"></path></g><g id="freepik--Check--inject-7"><path d="M319.78,107a3.46,3.46,0,0,1-2.51-1.09l-7.77-8.3a3.43,3.43,0,0,1,5-4.68l5,5.39L331.5,83.15a3.43,3.43,0,1,1,5.38,4.25l-14.41,18.25a3.41,3.41,0,0,1-2.55,1.3Z" style="fill:#BA68C8"></path></g></g></g></svg>