<svg xmlns="http://www.w3.org/2000/svg" viewBox="0 0 500 500"><g id="freepik--Character--inject-3"><g id="freepik--character--inject-3"><g id="freepik--Bottom--inject-3"><path d="M196.11,311.69a13.66,13.66,0,0,1-1.59-4.34,26.49,26.49,0,0,0-1.67-6.3c-.51-1.06-1.22-2-1.8-3a6.42,6.42,0,0,1-1-3.35c.09-2,1.74-3,3.21-4.13a10.67,10.67,0,0,0,3.23-2.91c1-1.5,3.62-9.62,3.62-9.62l9.56,7.63s-5.07,7.05-6.09,9.54a12.35,12.35,0,0,0-1.19,4.11,11.81,11.81,0,0,0,.84,3.84,8.69,8.69,0,0,0,1.33,2.45c.7.75,2,1.07,2.85,1.65a7.4,7.4,0,0,1,2.37,2.45,1.43,1.43,0,0,1,0,1.64c-.19.25-.47.42-.66.67a6,6,0,0,1-.63.89,7.34,7.34,0,0,1-2.49,1.45,9.94,9.94,0,0,1-5.44.57A6.66,6.66,0,0,1,196.11,311.69Z" style="fill:#ffbda7"></path><path d="M189.52,292.39c-1.82.86-1.75,2.46-1.47,4.14s2.25,4,3.11,5.28a6,6,0,0,1,1.44,4.3c.1,2.62.55,5.45,3.26,7.26,2.52,1.68,5.45,2.5,9.76,2,2.84-.33,5.34-1.47,5.55-2.47a7,7,0,0,0-1-3.84c-.44-.48-7-2.59-9.49-4.74S189.52,292.39,189.52,292.39Z" style="fill:#263238"></path><path d="M196.74,287.14c-.5-.23-.79-.15-1.58.68a12.16,12.16,0,0,1-2.43,1.92c-1.53,1-4.07,1.89-3.64,5.42.27,2.14,1.48,3.93,2.63,5.69a12.87,12.87,0,0,1,1.17,2.2,13.54,13.54,0,0,1,.55,3.64,10.35,10.35,0,0,0,.66,2.33,7.32,7.32,0,0,0,1,2,6.11,6.11,0,0,0,1.66,1.46c2.35,1.54,5.46,1.69,8.18,1.48a10.67,10.67,0,0,0,1.49-.2,8.08,8.08,0,0,0,2.21-.87,5.24,5.24,0,0,0,1.79-1.39c.79-1.38-.39-2.87-1.26-3.84a6.5,6.5,0,0,0-3-1.76c-2.52-.74-3.17-6.64-3.15-7.36a5.55,5.55,0,0,1,1-3c.67-1.21.92-1.56-1.08-1.6-1.77,0-5.41-.16-6.31,2.38,0,0,.67-2.65.24-3.55s-1.67-2.8-.85-4.4A3.81,3.81,0,0,0,196.74,287.14Z" style="fill:#37474f"></path><path d="M196.53,312.47c.08-1.65,1.78-4.14,4.55-5.6a7.9,7.9,0,0,1,5.79-1,5.9,5.9,0,0,1,4.31,5.15C210.29,314.1,200.83,316.07,196.53,312.47Z" style="fill:#fafafa"></path><path d="M217.11,245.66s-3.17-5.24-3-10.12,2.59-16.37,2.59-16.37h26.72c1.31,10.11-.8,18.75-1.94,25.86-1.55,8.3-2.33,11.35-4.54,15.11-2.3,3.92-4.59,7-13.79,15.45-8.25,7.62-15.33,14.09-15.33,14.09s-2.89.49-6-3.28a14,14,0,0,1-2.4-5.46s7-14.28,10.76-18.73a61.78,61.78,0,0,1,6.78-7Z" style="fill:#263238"></path><path d="M220.69,312.28l1.67,10.18s1.16,3.66,4.3,4.22,6.78-5.11,6.78-5.11l-.15-10.75Z" style="fill:#ffbda7"></path><path d="M220.69,329.1a3.26,3.26,0,0,0,1.13,2.7,20.92,20.92,0,0,0,4.16,2.36,6.77,6.77,0,0,1,3.13,2.91c.57,1.29,1.54,4.12,6.42,5.55a15.56,15.56,0,0,0,10.35-.4c1.7-.7,3.2-2.18,3-3.64C248.68,337,220.69,329.1,220.69,329.1Z" style="fill:#263238"></path><path d="M223.07,321.47a1.9,1.9,0,0,1-1-.82l-.17-1c-.33-.09-.88.58-.89.93,0,3.13-1.45,6-.2,9.09,1,2.53,5.13,2.75,7,4.55,2.1,2,2.59,6.11,8.8,7.4,5.6,1.15,10.75-1.46,12.26-3.05,0,0,.33-3.82-2.23-4.63-1.79-.57-3.38-1.09-6.27-3.92a30.84,30.84,0,0,1-3.09-3.74,11.66,11.66,0,0,1-2.51-4.89,2,2,0,0,0-.58-1.35,1.82,1.82,0,0,0-1.56.05,17.22,17.22,0,0,1-4.83.82,2,2,0,0,0-1.16.24c-.58.4-.54,1.28-.32,1.95a3.66,3.66,0,0,1,.37,2.06c-1.24-.76-1.56-2.54-2.8-3.3A8.09,8.09,0,0,0,223.07,321.47Z" style="fill:#37474f"></path><path d="M234.06,340.81c-.14-2.68,1-5,4.07-6.85,2.13-1.29,4.93-1.66,6.09-1.3s3.85,1.07,4.35,2.88a8.11,8.11,0,0,1,.32,3s-2.22,2.83-7.76,3.33C236.35,342.35,234.06,340.81,234.06,340.81Z" style="fill:#fafafa"></path><path d="M216.12,276.87c-2.4,6.76.85,19.06,1.79,24.84.5,3.05,2.58,12.49,2.58,12.49s1.91,2,6.84,1.73,6.16-1.61,6.16-1.61.4-19.56.56-29a79.83,79.83,0,0,0-.76-13.84c-.2-4.05-2.6-17.3-4.45-25.25l-1.54-7.66s10.43-2.57,12.59-13.52l-31.64-12.33a35.92,35.92,0,0,0-5,9.06c-1.45,4.15-2.94,7.63-2.71,14.63.16,5.2,2.2,9.59,3.31,13.32C204.86,253.25,214.79,273.84,216.12,276.87Z" style="fill:#37474f"></path><path d="M223.5,248a114.72,114.72,0,0,1,4.29,14.45c.56,2.46,1,4.94,1.37,7.44.18,1.25.32,2.5.44,3.76.05.64.13,1.27.16,1.9s.05,1.28.05,1.91c0,5.05.66,25.92,0,30.9.12-5-1.38-28.4-1.41-30.88,0-.63,0-1.24,0-1.85s-.09-1.24-.14-1.85c-.11-1.24-.25-2.48-.39-3.72-.29-2.47-.69-4.93-1.13-7.39C225.81,257.75,224.69,252.87,223.5,248Z" style="fill:#263238"></path></g><g id="freepik--Top--inject-3"><path d="M228.34,165.37c-.44,4.38-1.49,8.94-4.47,12.18a18.23,18.23,0,0,1-7.34,4.94,15.41,15.41,0,0,1-8.55.25c-1.64-.54-2.17-1.12-2.08-1.74a2.83,2.83,0,0,0,2.19-.8,5.65,5.65,0,0,1-3.43-.21,3.56,3.56,0,0,1-2.15-2.57,5.81,5.81,0,0,0,4.61-1.91,10.42,10.42,0,0,0,2.34-4.55c.87-3.33.73-6.83.67-10.27s0-7,1.19-10.21,3.82-6.12,7.21-6.75a5,5,0,0,1,4.15.89c1.45,1.25,2.81,2.24,3.65,4a21.42,21.42,0,0,1,1.66,6c.3,1.88.42,3.76.64,5.65A23.21,23.21,0,0,1,228.34,165.37Z" style="fill:#263238"></path><g id="freepik--Arm--inject-3"><path d="M238.82,173.37c-1.18,1.5-4.69,7.18-2.27,16.64a163.2,163.2,0,0,0,4.82,16.74c1.95,5.62,2.55,7,6.85,9.37a114.63,114.63,0,0,0,20.6,8.56,6.32,6.32,0,0,0,3.86-.3,9.18,9.18,0,0,0,2.63-1.38c1.06-.78,1.08-2.21,1.44-3.34.64-2,1.35-4.07,2-6.12.28-.93.85-1.91.53-2.9-.06-.2-.28-.47-.47-.48,0,0,.27-.87.4-1.27.24-.72.55-2.11-.23-2.64s-1.71,1.08-1.71,1.08a5.7,5.7,0,0,0,.91-2.32c0-1.06-.64-1.86-1.35-1.44a4.56,4.56,0,0,0-1.22,1.19,1.17,1.17,0,0,0-1-.16,4,4,0,0,0-2.17,2,16.7,16.7,0,0,0-1.57,3,15.13,15.13,0,0,1-1.41,3.12,3.63,3.63,0,0,1-1.79,1.37c-.87.28-9.21-7.05-12.47-9.74,0,0-3.72-14-5.39-19.07C248,179.85,245.37,173.68,238.82,173.37Z" style="fill:#ffbda7"></path><path d="M276.75,219.66l1.48-4.85c.25-.8.5-1.62.79-2.41a3.6,3.6,0,0,0,.23-1.2,1.81,1.81,0,0,0-.12-.58c-.07-.16-.23-.34-.35-.35a.11.11,0,0,1-.1-.12v0a8,8,0,0,0,.61-3c-.06-.47-.43-1-.85-.73a3.55,3.55,0,0,0-1.09,1,.13.13,0,0,1-.19,0,.13.13,0,0,1,0-.18,8.21,8.21,0,0,0,.73-1.45,2.1,2.1,0,0,0,0-1.54,1.2,1.2,0,0,0-.43-.61.56.56,0,0,0-.66,0,4.26,4.26,0,0,0-1.15,1.13.09.09,0,0,1-.13,0h0a1.51,1.51,0,0,0-1.63.16,5.09,5.09,0,0,0-1.24,1.33,16.42,16.42,0,0,0-1.81,3.22,16.35,16.35,0,0,1,1.7-3.3,4.74,4.74,0,0,1,1.26-1.38,1.63,1.63,0,0,1,1.85-.16h-.14a4.53,4.53,0,0,1,1.19-1.2.78.78,0,0,1,.89,0,1.42,1.42,0,0,1,.52.72,2.27,2.27,0,0,1,0,1.7,8,8,0,0,1-.75,1.52l-.22-.16a3.46,3.46,0,0,1,1.19-1.12.72.72,0,0,1,.87.15,1.43,1.43,0,0,1,.36.79,4.12,4.12,0,0,1-.18,1.61l-.48,1.51-.1-.14c.58.17.63.73.66,1.14a3.59,3.59,0,0,1-.25,1.27c-.31.8-.56,1.59-.82,2.4Z" style="fill:#f0997a"></path><path d="M275.68,204.65a1.19,1.19,0,0,1,.25,1.22,4.23,4.23,0,0,1-.47,1.09,17.16,17.16,0,0,0-1.12,2,18.81,18.81,0,0,0-.87,2.14l-.7,2.2.63-2.23a18.88,18.88,0,0,1,.81-2.17,16.67,16.67,0,0,1,1.06-2.06,4.05,4.05,0,0,0,.42-1,.93.93,0,0,0-.2-.94Z" style="fill:#f0997a"></path><path d="M277.37,207.39c-.44,1-.84,2-1.21,3s-.74,2-1,3.09c.23-1.06.56-2.1.88-3.13s.68-2.07,1.09-3.08Z" style="fill:#f0997a"></path><path d="M273.39,217.85a4.57,4.57,0,0,0-2.12-2.07c-.07,0-.07.1,0,.12a5.13,5.13,0,0,1,1.7,2,7,7,0,0,1,.57,2.5c0,.3,0,.62.06.92a.17.17,0,0,0,.14-.16,10,10,0,0,0,.14-1.81A3.68,3.68,0,0,0,273.39,217.85Z" style="fill:#f0997a"></path><path d="M278.92,210.22a37.1,37.1,0,0,0-1.54,3.68,39.38,39.38,0,0,1,1.27-3.8Z" style="fill:#f0997a"></path><path d="M269.67,211.52c.11-1.88-.92-2.82-1.69-2.56s-.72,2.54-1.15,4-2.83,8,.05,10l2.94-7.43C269.4,214.93,269.59,213,269.67,211.52Z" style="fill:#ffbda7"></path><path d="M269.82,215.47a2.72,2.72,0,0,1-.29-1.35c0-.47,0-.93,0-1.4a6.35,6.35,0,0,0-.17-2.72,1.58,1.58,0,0,0-.86-.93.66.66,0,0,0-.57.05,1,1,0,0,0-.32.53c-.26.86-.3,1.8-.49,2.72a38.54,38.54,0,0,0-1.41,5.39,9.39,9.39,0,0,0-.06,2.75,3.42,3.42,0,0,0,1.23,2.39,3.49,3.49,0,0,1-1.37-2.36,9.45,9.45,0,0,1,0-2.81,38.25,38.25,0,0,1,1.32-5.42,27.68,27.68,0,0,1,.55-2.74,1.24,1.24,0,0,1,.41-.64.91.91,0,0,1,.77-.06,1.78,1.78,0,0,1,1,1.06C270.16,211.79,269.18,213.69,269.82,215.47Z" style="fill:#f0997a"></path></g><path d="M228,174a59.88,59.88,0,0,1,10.86-.58c1.44.24,7.54,7.68,10.91,15.89s-5,13-5,13-1.14,9.07-1.16,11,1.2,4.92,0,7c-1.52,2.54-9.14,8.15-20.77,6.25-8.73-1.42-19.25-8.34-16.59-12.87,4.45-7.26,4.6-7.69,4.3-14.37-.21-4.51-.83-8.57,0-12.67,1.14-5.8,3.23-6.39,5.38-8.07C223,175.12,225.08,174.56,228,174Z" style="fill:#BA68C8"></path><g id="freepik--Head--inject-3"><path d="M224.34,169.11s-2.75-4-4.26-6.6-5.85-11.41.39-15.07c.21-2.93,3.19-5.7,8.83-6.85a16.06,16.06,0,0,1,13.41,2.88c3.89,3.1,6.52,11.05,1.34,15.41Z" style="fill:#263238"></path><path d="M243.24,148.56s1.9,2.07,1.54,7.88c-.07,1,.61,2.81.57,5.37-.09,5.83-2.52,8.69-5.44,9.74a9.52,9.52,0,0,1-4.26.22l-.25,3.33a30.79,30.79,0,0,1,3.84,14.18,103.74,103.74,0,0,0-15.93-13.47l1.13-9.45s-1.66,1.29-3.64-.71c-2.19-2.19-2.05-5.62-.24-6.81,2.65-1.75,4.42.29,5,1.53s2.74.45,1.51-3.3c1.33-.29,3.23-4.46,3-7.48C234.71,151.58,240.45,151.26,243.24,148.56Z" style="fill:#ffbda7"></path><path d="M233.77,154.08l-2.57,1.15a1.34,1.34,0,0,1,.65-1.84A1.49,1.49,0,0,1,233.77,154.08Z" style="fill:#263238"></path><path d="M240.57,154.63l2.7.77a1.35,1.35,0,0,0-.92-1.73A1.47,1.47,0,0,0,240.57,154.63Z" style="fill:#263238"></path><polygon points="237.02 156.63 237.37 162.98 241.03 161.82 237.02 156.63" style="fill:#f0997a"></polygon><path d="M235.65,171.77a24,24,0,0,1-7.66-2.7,7.23,7.23,0,0,1-2.18-3s.24,2.87,1.81,4.14c2.48,2,7.9,3.31,7.9,3.31Z" style="fill:#f0997a"></path><path d="M240.57,157.68a1.22,1.22,0,0,0,1.29,1.11,1.15,1.15,0,0,0,1.1-1.24,1.23,1.23,0,0,0-1.29-1.11A1.15,1.15,0,0,0,240.57,157.68Z" style="fill:#263238"></path><path d="M231.87,157.51A1.24,1.24,0,0,0,233,158.8a1.15,1.15,0,0,0,1.26-1.07,1.22,1.22,0,0,0-1.11-1.29A1.15,1.15,0,0,0,231.87,157.51Z" style="fill:#263238"></path><path d="M234.41,164.07a2,2,0,0,0,3.73,1.56Z" style="fill:#b16668"></path><path d="M234.27,164.69a2,2,0,0,0,2,2.18,2.23,2.23,0,0,0-2-2.18Z" style="fill:#f28f8f"></path></g><g id="freepik--arm--inject-3"><path d="M215.82,178.55c-3.9,1.7-7.23,6.06-4.72,13.18A164.76,164.76,0,0,0,220.2,212a23,23,0,0,0,7.63,8.77c10.7,7.62,21.06,13.43,22.42,13.94s2.84.17,5.29-.62,3.1-2.61,4.6-4.21,3.78-3.21,3.2-3.82c-.71-.77-1.87-.82-3.77.34s-2.24,1.72-1-1.69a27.86,27.86,0,0,1,2.67-5.39c.64-1.33.33-2.26-.3-2.71s-1.74,1-1.74,1a5.8,5.8,0,0,0,1-2.3c0-1.05-.59-1.88-1.3-1.48a4.48,4.48,0,0,0-1.26,1.16c-.37-.36-1.75-.52-3,1.41,0,0-.64-1-2.58.88-1.59,1.57-2.8,5-3.42,6.61-.47,1.23-15.3-15.9-15.3-15.9L226,190.42S220.75,179.25,215.82,178.55Z" style="fill:#ffbda7"></path><path d="M258.58,224.71a26.33,26.33,0,0,1,1-2.59,24.3,24.3,0,0,1,1.36-2.45,2.62,2.62,0,0,0,.32-2.56,1.26,1.26,0,0,0-.45-.44.61.61,0,0,0-.57.1,4.07,4.07,0,0,0-1,.93.11.11,0,0,1-.16,0,.12.12,0,0,1,0-.15,8,8,0,0,0,.77-1.44,2.07,2.07,0,0,0,.06-1.53c-.14-.5-.6-.91-1-.59a4.3,4.3,0,0,0-1.17,1.08.15.15,0,0,1-.2,0h0a1,1,0,0,0-.77-.18,2,2,0,0,0-.81.29,4.18,4.18,0,0,0-1.24,1.27.1.1,0,0,1-.15,0l0,0h0a.9.9,0,0,0-1.08-.1,4.09,4.09,0,0,0-1.05.72,7.61,7.61,0,0,0-1.6,2,35.44,35.44,0,0,0-2.18,4.77,31.14,31.14,0,0,1,2-4.85,7.84,7.84,0,0,1,1.61-2.1,4.27,4.27,0,0,1,1.1-.77,1.07,1.07,0,0,1,1.34.17h-.18a4.32,4.32,0,0,1,1.3-1.36,2.23,2.23,0,0,1,.9-.33,1.26,1.26,0,0,1,1,.24l-.2,0a4.46,4.46,0,0,1,1.24-1.17.83.83,0,0,1,.93,0,1.45,1.45,0,0,1,.5.76,2.27,2.27,0,0,1-.08,1.7,8.83,8.83,0,0,1-.81,1.48l-.19-.13a3.78,3.78,0,0,1,1.05-1,.81.81,0,0,1,.76-.11,1.55,1.55,0,0,1,.52.53,2.76,2.76,0,0,1-.34,2.74c-.5.79-1,1.58-1.41,2.41A26.27,26.27,0,0,0,258.58,224.71Z" style="fill:#f0997a"></path><path d="M254.77,216.36a2.05,2.05,0,0,1-.14,1.9,4.29,4.29,0,0,1-.55.77,4.61,4.61,0,0,0-.44.79,28.26,28.26,0,0,0-1.25,3.48,29.1,29.1,0,0,1,1.12-3.54,4.76,4.76,0,0,1,.43-.84,4.52,4.52,0,0,0,.5-.76,1.81,1.81,0,0,0,.08-1.66Z" style="fill:#f0997a"></path><path d="M257.73,214.91a1.18,1.18,0,0,1,.22,1.22,4.37,4.37,0,0,1-.5,1.07,16.75,16.75,0,0,0-1.19,2c-.34.69-.67,1.39-.94,2.11l-.77,2.18.7-2.21a21,21,0,0,1,.89-2.14,16.64,16.64,0,0,1,1.12-2,4.08,4.08,0,0,0,.45-1,.91.91,0,0,0-.17-.94Z" style="fill:#f0997a"></path><path d="M259.34,217.7c-.47,1-.9,2-1.31,3s-.8,2-1.11,3.06c.27-1.06.62-2.09,1-3.11s.74-2,1.18-3.05Z" style="fill:#f0997a"></path><path d="M259.57,226.4c-1.23.75-1.8,1.24-1.72.58h0c-.39,1.46-.23,2,.24,1.43a17.87,17.87,0,0,1,1.41-1.7,5.22,5.22,0,0,1,1.45-1A7.15,7.15,0,0,0,259.57,226.4Z" style="fill:#f0997a"></path><path d="M254.51,228.57a4.6,4.6,0,0,0-2.06-2.14c-.06,0-.07.1,0,.13a5,5,0,0,1,1.64,2.06,9.63,9.63,0,0,1,.41,1.36,4.53,4.53,0,0,1,.16.88,2.72,2.72,0,0,0,0,.57s0,0,0,0a1.22,1.22,0,0,0,.16-.6,4.41,4.41,0,0,0,.08-.73A3.61,3.61,0,0,0,254.51,228.57Z" style="fill:#f0997a"></path><path d="M248.58,224c-.34.13-2-1.45-4.16-3.67.91,1.78,3.43,6.64,3.59,6.4a25.93,25.93,0,0,0,.63-2.78A.06.06,0,0,1,248.58,224Z" style="fill:#f0997a"></path></g></g></g></g><g id="freepik--Cart--inject-3"><g id="freepik--cart--inject-3"><path id="freepik--shadow--inject-3" d="M298.29,316.37,249.2,344.8c-1.66,1-1.66,2.52,0,3.48l56.27,32.51a6.63,6.63,0,0,0,6,0l49.09-28.43c1.66-1,1.66-2.52,0-3.48l-56.27-32.51A6.65,6.65,0,0,0,298.29,316.37Z" style="opacity:0.1"></path><path d="M318.33,363.82a11.17,11.17,0,0,1-5.54-1l-49.08-28.27c-3-1.49-6.3-5.37-6.51-9l-1.51-35,2.74-.16,1.51,35c.14,2.5,2.75,5.62,5,6.75L314,360.38a9.4,9.4,0,0,0,8.24-.48L355,341c.79-.51,1.24-1.13,1.21-1.64s-.52-1-1.35-1.46L302.3,307.43c-3-1.49-6.28-5.37-6.49-9l-.73-19.4,2.73-.15.74,19.39c.14,2.5,2.74,5.63,5,6.75l52.55,30.51a4.59,4.59,0,0,1,2.86,3.75,4.71,4.71,0,0,1-2.43,4.09l-32.74,18.86A11.22,11.22,0,0,1,318.33,363.82Z" style="fill:#455a64"></path><path d="M312.8,362.82l.09.05c-3.2,4.15-8.41,5.33-9.58,4.79-.95-.44-1.5-1.56-.79-2.23.33-.31.9-.63,1.44-1.08,1.57-1.3,2.08-3.56,2.23-5.33Z" style="fill:#e0e0e0"></path><path d="M309.51,369.23a11.58,11.58,0,0,0-5.19-9.11c-1.51-.88-2.87-.93-3.83-.29h0l-3.55,2,7.43,12.82,3.52-2h0A3.64,3.64,0,0,0,309.51,369.23Z" style="fill:#37474f"></path><path d="M300.64,362.22a11.54,11.54,0,0,1,5.18,9.11c0,3.34-2.37,4.68-5.26,3a11.6,11.6,0,0,1-5.18-9.11C295.4,361.87,297.76,360.53,300.64,362.22Z" style="fill:#455a64"></path><path d="M298.84,367.23c0-1.31.8-1.9,1.78-1.33a4.26,4.26,0,0,1,1.75,3.4c0,1.31-.81,1.9-1.78,1.33A4.22,4.22,0,0,1,298.84,367.23Z" style="fill:#263238"></path><path d="M303.72,357.6s.35,6.17-2.48,8.53c-.53.44-1.11.76-1.44,1.07-.72.67-.15,1.79.79,2.23,1.37.64,8.39-1.17,11.13-7.23Z" style="fill:#f5f5f5"></path><path d="M300.73,367.6a1.17,1.17,0,0,1,.57.87c0,.34-.21.48-.5.33a1.16,1.16,0,0,1-.58-.87C300.21,367.6,300.43,367.45,300.73,367.6Z" style="fill:#263238"></path><path d="M274,340.5l.09.05c-3.2,4.15-8.4,5.33-9.58,4.78-.94-.43-1.5-1.56-.78-2.23.33-.31.9-.62,1.44-1.07,1.56-1.3,2.08-3.57,2.23-5.33Z" style="fill:#e0e0e0"></path><path d="M270.74,346.91a11.57,11.57,0,0,0-5.18-9.11c-1.51-.89-2.87-.93-3.84-.3h0l-3.54,2,7.43,12.82,3.52-2h0A3.63,3.63,0,0,0,270.74,346.91Z" style="fill:#37474f"></path><path d="M261.88,339.89a11.6,11.6,0,0,1,5.18,9.11c0,3.34-2.37,4.68-5.26,3a11.6,11.6,0,0,1-5.18-9.11C256.64,339.54,259,338.2,261.88,339.89Z" style="fill:#455a64"></path><path d="M260.07,344.91c0-1.31.81-1.91,1.79-1.33a4.25,4.25,0,0,1,1.75,3.4c0,1.3-.81,1.9-1.78,1.33A4.24,4.24,0,0,1,260.07,344.91Z" style="fill:#263238"></path><path d="M265,335.28s.34,6.17-2.48,8.52c-.54.45-1.11.77-1.44,1.08-.72.66-.15,1.79.79,2.23,1.37.63,8.39-1.17,11.12-7.23Z" style="fill:#f5f5f5"></path><path d="M262,345.28a1.17,1.17,0,0,1,.57.87c0,.33-.21.48-.51.33a1.17,1.17,0,0,1-.57-.87C261.44,345.27,261.67,345.13,262,345.28Z" style="fill:#263238"></path><path d="M351.64,336.07c-3.21,4.14-8.41,5.33-9.58,4.78-.94-.43-1.5-1.56-.78-2.23.33-.3.9-.62,1.43-1.07,1.57-1.3,2.09-3.57,2.23-5.33l6.21,3.57.4.23Z" style="fill:#e0e0e0"></path><path d="M348.26,342.43a11.58,11.58,0,0,0-5.19-9.11c-1.51-.88-2.87-.93-3.83-.29h0l-3.55,2,7.44,12.82,3.51-2h0A3.65,3.65,0,0,0,348.26,342.43Z" style="fill:#37474f"></path><path d="M339.39,335.41a11.54,11.54,0,0,1,5.18,9.11c0,3.34-2.37,4.68-5.26,3a11.6,11.6,0,0,1-5.18-9.12C334.15,335.06,336.51,333.72,339.39,335.41Z" style="fill:#455a64"></path><path d="M337.59,340.43c0-1.31.8-1.9,1.78-1.33a4.25,4.25,0,0,1,1.75,3.4c0,1.31-.81,1.9-1.78,1.33A4.24,4.24,0,0,1,337.59,340.43Z" style="fill:#263238"></path><path d="M342.47,330.8s.35,6.17-2.48,8.53c-.53.44-1.11.76-1.44,1.07-.72.67-.15,1.79.79,2.23,1.37.64,8.39-1.17,11.13-7.23Z" style="fill:#f5f5f5"></path><path d="M339.48,340.8a1.17,1.17,0,0,1,.57.87c0,.33-.21.48-.5.33a1.16,1.16,0,0,1-.58-.87C339,340.8,339.18,340.65,339.48,340.8Z" style="fill:#263238"></path><path d="M312.89,313.59l.09.05c-3.2,4.15-8.41,5.33-9.58,4.79-.94-.44-1.5-1.56-.78-2.23.33-.31.9-.63,1.44-1.08,1.56-1.3,2.08-3.56,2.23-5.33Z" style="fill:#e0e0e0"></path><path d="M309.6,320a11.57,11.57,0,0,0-5.18-9.11c-1.51-.89-2.88-.93-3.84-.3h0l-3.54,2,7.43,12.82,3.52-2h0A3.61,3.61,0,0,0,309.6,320Z" style="fill:#37474f"></path><path d="M300.74,313a11.58,11.58,0,0,1,5.18,9.11c0,3.34-2.38,4.68-5.26,3a11.6,11.6,0,0,1-5.18-9.11C295.5,312.64,297.85,311.3,300.74,313Z" style="fill:#455a64"></path><path d="M298.93,318c0-1.3.81-1.9,1.78-1.33a4.27,4.27,0,0,1,1.76,3.4c0,1.31-.81,1.9-1.79,1.33A4.25,4.25,0,0,1,298.93,318Z" style="fill:#263238"></path><path d="M303.82,308.37s.34,6.17-2.48,8.53c-.54.44-1.11.76-1.44,1.07-.72.67-.16,1.79.78,2.23,1.37.64,8.4-1.17,11.13-7.23Z" style="fill:#f5f5f5"></path><path d="M300.82,318.37a1.12,1.12,0,0,1,.57.87c0,.34-.2.48-.5.33a1.15,1.15,0,0,1-.57-.87C300.3,318.37,300.53,318.22,300.82,318.37Z" style="fill:#263238"></path><path d="M295.36,226.54l-1.46.84-1.13-4.58a14.38,14.38,0,0,0-5.83-7.74l-1.34-.78a2.93,2.93,0,0,0-2.55,0l-9.1,5.23a.8.8,0,0,1-1.1-.3.81.81,0,0,1,.29-1.1l9.1-5.23a4.56,4.56,0,0,1,4.16,0l1.35.77a16.1,16.1,0,0,1,6.59,8.76Z" style="fill:#37474f"></path><path d="M254.4,233.22l-2.63-4.56,22-12.67h0a1.25,1.25,0,0,1,1.43.06,4.15,4.15,0,0,1,1.86,3.22,1.26,1.26,0,0,1-.66,1.27h0Z" style="fill:#BA68C8"></path><path d="M254.4,233.22l-2.63-4.56,22-12.67h0a1.25,1.25,0,0,1,1.43.06,4.15,4.15,0,0,1,1.86,3.22,1.26,1.26,0,0,1-.66,1.27h0Z" style="opacity:0.25"></path><path d="M251.77,228.66c.69-.4,1.84.3,2.56,1.56s.76,2.6.07,3-1.84-.3-2.57-1.56S251.08,229.06,251.77,228.66Z" style="fill:#BA68C8"></path><path d="M253.43,251l-1.46.84-1.13-4.58a14.33,14.33,0,0,0-5.83-7.74l-1.34-.78a1.82,1.82,0,0,1,0-3.34l8.68-5c.22-.13.57.09.79.47s.24.81,0,.93h0l-8.68,5c-.24.13-.29.25-.29.27s.05.13.29.27l1.34.78a16,16,0,0,1,6.59,8.75Z" style="fill:#37474f"></path><polygon points="300.16 279.92 256.33 305.23 320.39 342.22 364.23 316.9 300.16 279.92" style="fill:#BA68C8"></polygon><polygon points="300.16 279.92 256.33 305.23 320.39 342.22 364.23 316.9 300.16 279.92" style="opacity:0.4"></polygon><polygon points="251.97 251.88 295.36 226.53 300.16 279.92 256.33 305.23 251.97 251.88" style="fill:#BA68C8"></polygon><polygon points="251.97 251.88 295.36 226.53 300.16 279.92 256.33 305.23 251.97 251.88" style="opacity:0.2"></polygon><path d="M295.36,226.53l4.8,53.39,64.07,37,10.11-44.77Zm22.4,51.33a3.68,3.68,0,0,1-4.6-2.38L302.58,248a3.45,3.45,0,1,1,6.4-2.46L319.56,273A3.67,3.67,0,0,1,317.76,277.86Zm20,9.41a3.66,3.66,0,0,1-4.59-2.38l-10.59-27.47A3.46,3.46,0,1,1,329,255l10.59,27.48A3.66,3.66,0,0,1,337.76,287.27Zm20,9.41a3.67,3.67,0,0,1-4.59-2.37l-10.58-27.48a3.46,3.46,0,1,1,6.4-2.47l10.58,27.48A3.66,3.66,0,0,1,357.76,296.68Z" style="fill:#BA68C8"></path><path d="M295.36,226.53l4.8,53.39,64.07,37,10.11-44.77Zm22.4,51.33a3.68,3.68,0,0,1-4.6-2.38L302.58,248a3.45,3.45,0,1,1,6.4-2.46L319.56,273A3.67,3.67,0,0,1,317.76,277.86Zm20,9.41a3.66,3.66,0,0,1-4.59-2.38l-10.59-27.47A3.46,3.46,0,1,1,329,255l10.59,27.48A3.66,3.66,0,0,1,337.76,287.27Zm20,9.41a3.67,3.67,0,0,1-4.59-2.37l-10.58-27.48a3.46,3.46,0,1,1,6.4-2.47l10.58,27.48A3.66,3.66,0,0,1,357.76,296.68Z" style="opacity:0.1"></path><g id="freepik--light-bag--inject-3"><path d="M313.54,219.45a5.11,5.11,0,0,0-5.2.31c-4.27,2.47-7.73,9.58-7.73,15.86v14.81a.67.67,0,1,0,1.34,0V235.62c0-5.85,3.17-12.44,7.06-14.69a3.75,3.75,0,0,1,3.86-.31c1.6.93,2.52,3.28,2.52,6.46v14.75a.68.68,0,0,0,.68.67.67.67,0,0,0,.67-.67V227.08C316.74,223.41,315.57,220.63,313.54,219.45Z" style="fill:#263238"></path><polygon points="340.96 300.33 336.82 232.4 328.46 227.6 324.57 290.87 340.96 300.33" style="fill:#BA68C8"></polygon><polygon points="340.96 300.33 336.82 232.4 328.46 227.6 324.57 290.87 340.96 300.33" style="fill:#fff;opacity:0.4"></polygon><polygon points="288.88 250.43 284.99 313.7 324.57 290.87 328.46 227.6 288.88 250.43" style="fill:#BA68C8"></polygon><polygon points="288.88 250.43 284.99 313.7 324.57 290.87 328.46 227.6 288.88 250.43" style="fill:#fff;opacity:0.30000000000000004"></polygon><polygon points="288.88 250.43 284.99 313.7 324.57 290.87 328.46 227.6 288.88 250.43" style="opacity:0.05"></polygon><polygon points="288.88 250.43 297.24 255.24 301.38 323.17 284.99 313.7 288.88 250.43" style="fill:#BA68C8"></polygon><polygon points="288.88 250.43 297.24 255.24 301.38 323.17 284.99 313.7 288.88 250.43" style="fill:#fff;opacity:0.55"></polygon><polygon points="301.38 323.17 294.11 312.39 293.19 282.67 292.45 311.44 284.99 313.7 301.38 323.17" style="fill:#BA68C8;opacity:0.5"></polygon><path d="M336.82,232.4l-39.58,22.84,4.14,67.93L341,300.34Zm-27.16,24.5c-.82.47-1.49.08-1.49-.87a3.31,3.31,0,0,1,1.49-2.58c.82-.48,1.49-.08,1.49.87A3.26,3.26,0,0,1,309.66,256.9Zm14.79-8.6c-.83.47-1.49.08-1.49-.87a3.27,3.27,0,0,1,1.49-2.58c.82-.48,1.49-.09,1.49.87A3.28,3.28,0,0,1,324.45,248.3Z" style="fill:#BA68C8"></path><path d="M336.82,232.4l-39.58,22.84,4.14,67.93L341,300.34Zm-27.16,24.5c-.82.47-1.49.08-1.49-.87a3.31,3.31,0,0,1,1.49-2.58c.82-.48,1.49-.08,1.49.87A3.26,3.26,0,0,1,309.66,256.9Zm14.79-8.6c-.83.47-1.49.08-1.49-.87a3.27,3.27,0,0,1,1.49-2.58c.82-.48,1.49-.09,1.49.87A3.28,3.28,0,0,1,324.45,248.3Z" style="fill:#fff;opacity:0.7000000000000001"></path><path d="M321.92,224.2a5.06,5.06,0,0,0-5.2.31c-4.27,2.46-7.73,9.57-7.73,15.85v14.81a.67.67,0,1,0,1.34,0V240.36c0-5.85,3.17-12.44,7.06-14.69a3.75,3.75,0,0,1,3.85-.31c1.61.93,2.53,3.29,2.53,6.47v14.74a.68.68,0,0,0,.68.67.67.67,0,0,0,.67-.67V231.83C325.12,228.15,324,225.37,321.92,224.2Z" style="fill:#37474f"></path></g><path d="M252,251.88l4.36,53.35,64.06,37,10.12-44.78Zm25.29,52.52a3.68,3.68,0,0,1-4.59-2.38l-10.59-27.48a3.45,3.45,0,1,1,6.4-2.47l10.59,27.48A3.67,3.67,0,0,1,277.26,304.4Zm20,9.41a3.67,3.67,0,0,1-4.59-2.38L282.09,284a3.45,3.45,0,1,1,6.4-2.46L299.08,309A3.69,3.69,0,0,1,297.27,313.81Zm20,9.41a3.66,3.66,0,0,1-4.59-2.38l-10.59-27.48a3.45,3.45,0,1,1,6.4-2.46l10.59,27.48A3.66,3.66,0,0,1,317.27,323.22Z" style="fill:#BA68C8"></path><polygon points="330.51 297.44 374.34 272.13 364.23 316.91 320.39 342.22 330.51 297.44" style="fill:#BA68C8"></polygon><polygon points="330.51 297.44 374.34 272.13 364.23 316.91 320.39 342.22 330.51 297.44" style="opacity:0.2"></polygon></g></g><g id="freepik--speech-bubble--inject-3"><g id="freepik--speech-bubble--inject-3"><g id="freepik--speech-bubble--inject-3"><path d="M309.11,181.71a25.36,25.36,0,0,1-18.63,1.34l-2.71-1a25.41,25.41,0,0,1,16.72-47.81l2.77.9a25.4,25.4,0,0,1,1.85,46.6Z" style="fill:#fff"></path><path d="M322.93,146.83a27.58,27.58,0,0,0-51.34,19.63l-5.86,6.26a1.6,1.6,0,0,0,1.3,2.69l8.54-.68a27.58,27.58,0,0,0,47.36-27.9Zm-13.82,34.88a25.36,25.36,0,0,1-18.63,1.34l-2.71-1a25.41,25.41,0,0,1,16.72-47.81l2.77.9a25.4,25.4,0,0,1,1.85,46.6Z" style="fill:#BA68C8"></path><path d="M309.11,181.71a25.36,25.36,0,0,1-18.63,1.34l-2.71-1a25.41,25.41,0,0,1,16.72-47.81l2.77.9a25.4,25.4,0,0,1,1.85,46.6Z" style="fill:#fff"></path></g><path d="M286.07,151.9a.61.61,0,1,1,0-1.21l6.11,0h0a.62.62,0,0,1,.61.6.61.61,0,0,1-.61.61l-6.12,0Z" style="fill:#455a64"></path><path d="M307.62,165.63H289.8a.61.61,0,0,1-.59-.45l-4.58-16.88-2.93-1.69a.61.61,0,0,1,.61-1.05l3.14,1.81a.58.58,0,0,1,.28.37l4.53,16.67h16.9l3.56-12.63-5.26,0h0a.61.61,0,0,1,0-1.22l6.07,0a.63.63,0,0,1,.49.24.65.65,0,0,1,.1.54l-3.91,13.84A.6.6,0,0,1,307.62,165.63Z" style="fill:#455a64"></path><path d="M307.43,169.84H290.22a2.72,2.72,0,1,1,0-5.43H298a.61.61,0,0,1,.61.61.61.61,0,0,1-.61.61h-7.76a1.5,1.5,0,1,0,0,3h17.21a.61.61,0,1,1,0,1.21Z" style="fill:#455a64"></path><path d="M292.2,176.21a2.74,2.74,0,1,1,2.74-2.74A2.74,2.74,0,0,1,292.2,176.21Zm0-4.27a1.53,1.53,0,1,0,1.52,1.53A1.53,1.53,0,0,0,292.2,171.94Z" style="fill:#455a64"></path><path d="M304.4,176.21a2.74,2.74,0,1,1,2.74-2.74A2.74,2.74,0,0,1,304.4,176.21Zm0-4.27a1.53,1.53,0,1,0,0,3.05,1.53,1.53,0,0,0,0-3.05Z" style="fill:#455a64"></path><path d="M298.82,158.47a7.24,7.24,0,1,1,7.24-7.24A7.24,7.24,0,0,1,298.82,158.47Zm0-13.26a6,6,0,1,0,6,6A6,6,0,0,0,298.82,145.21Z" style="fill:#455a64"></path><path d="M298,154.53a.6.6,0,0,1-.43-.18l-2.62-2.6a.61.61,0,0,1,0-.86.6.6,0,0,1,.86,0L297.9,153l3.7-4.94a.61.61,0,0,1,.85-.13.6.6,0,0,1,.12.85l-4.11,5.51a.61.61,0,0,1-.45.24Z" style="fill:#455a64"></path><path d="M300.25,174.07h-3.9a.61.61,0,1,1,0-1.21h3.9a.61.61,0,1,1,0,1.21Z" style="fill:#455a64"></path></g></g></svg>